<mxfile host="app.diagrams.net" modified="2023-08-27T11:55:58.694Z" agent="Mozilla/5.0 (Windows NT 10.0; Win64; x64) AppleWebKit/537.36 (KHTML, like Gecko) Chrome/116.0.0.0 Safari/537.36" etag="zbJP1Zxd0q0n95EYyCEN" version="21.6.9" type="github" pages="10">
  <diagram name="Page-1" id="yMVu18zIBlXik53nTaiY">
    <mxGraphModel dx="1036" dy="621" grid="0" gridSize="10" guides="1" tooltips="1" connect="1" arrows="1" fold="1" page="0" pageScale="1" pageWidth="850" pageHeight="1100" math="0" shadow="0">
      <root>
        <mxCell id="0" />
        <mxCell id="1" parent="0" />
        <mxCell id="WGQSIC2b6Mcz66Ld2fvp-1" value="EC2" style="outlineConnect=0;dashed=0;verticalLabelPosition=bottom;verticalAlign=top;align=center;html=1;shape=mxgraph.aws3.instance;fillColor=#F58534;gradientColor=none;" parent="1" vertex="1">
          <mxGeometry x="390" y="270" width="60" height="63" as="geometry" />
        </mxCell>
        <mxCell id="WGQSIC2b6Mcz66Ld2fvp-2" value="EC2" style="outlineConnect=0;dashed=0;verticalLabelPosition=bottom;verticalAlign=top;align=center;html=1;shape=mxgraph.aws3.instance;fillColor=#F58534;gradientColor=none;" parent="1" vertex="1">
          <mxGeometry x="500" y="270" width="60" height="63" as="geometry" />
        </mxCell>
        <mxCell id="WGQSIC2b6Mcz66Ld2fvp-3" value="EC2" style="outlineConnect=0;dashed=0;verticalLabelPosition=bottom;verticalAlign=top;align=center;html=1;shape=mxgraph.aws3.instance;fillColor=#F58534;gradientColor=none;" parent="1" vertex="1">
          <mxGeometry x="600" y="270" width="60" height="63" as="geometry" />
        </mxCell>
        <mxCell id="WGQSIC2b6Mcz66Ld2fvp-4" value="EC2" style="outlineConnect=0;dashed=0;verticalLabelPosition=bottom;verticalAlign=top;align=center;html=1;shape=mxgraph.aws3.instance;fillColor=#F58534;gradientColor=none;" parent="1" vertex="1">
          <mxGeometry x="700" y="270" width="60" height="63" as="geometry" />
        </mxCell>
        <mxCell id="WGQSIC2b6Mcz66Ld2fvp-8" value="" style="shape=crossbar;whiteSpace=wrap;html=1;rounded=1;" parent="1" vertex="1">
          <mxGeometry x="400" y="390" width="360" height="20" as="geometry" />
        </mxCell>
        <mxCell id="WGQSIC2b6Mcz66Ld2fvp-11" value="" style="shape=crossbar;whiteSpace=wrap;html=1;rounded=1;" parent="1" vertex="1">
          <mxGeometry x="400" y="190" width="360" height="20" as="geometry" />
        </mxCell>
        <mxCell id="WGQSIC2b6Mcz66Ld2fvp-12" value="" style="html=1;verticalLabelPosition=bottom;align=center;labelBackgroundColor=#ffffff;verticalAlign=top;strokeWidth=2;strokeColor=#0080F0;shadow=0;dashed=0;shape=mxgraph.ios7.icons.user;" parent="1" vertex="1">
          <mxGeometry x="565" y="130" width="30" height="30" as="geometry" />
        </mxCell>
        <mxCell id="WGQSIC2b6Mcz66Ld2fvp-13" value="Stand by" style="text;html=1;strokeColor=none;fillColor=none;align=center;verticalAlign=middle;whiteSpace=wrap;rounded=0;" parent="1" vertex="1">
          <mxGeometry x="390" y="290" width="60" height="30" as="geometry" />
        </mxCell>
        <mxCell id="WGQSIC2b6Mcz66Ld2fvp-14" value="Active" style="text;html=1;strokeColor=none;fillColor=none;align=center;verticalAlign=middle;whiteSpace=wrap;rounded=0;" parent="1" vertex="1">
          <mxGeometry x="500" y="286.5" width="60" height="30" as="geometry" />
        </mxCell>
        <mxCell id="WGQSIC2b6Mcz66Ld2fvp-15" value="Actvie" style="text;html=1;strokeColor=none;fillColor=none;align=center;verticalAlign=middle;whiteSpace=wrap;rounded=0;" parent="1" vertex="1">
          <mxGeometry x="600" y="286.5" width="60" height="30" as="geometry" />
        </mxCell>
        <mxCell id="WGQSIC2b6Mcz66Ld2fvp-16" value="Active" style="text;html=1;strokeColor=none;fillColor=none;align=center;verticalAlign=middle;whiteSpace=wrap;rounded=0;" parent="1" vertex="1">
          <mxGeometry x="700" y="286.5" width="60" height="30" as="geometry" />
        </mxCell>
        <mxCell id="WGQSIC2b6Mcz66Ld2fvp-18" value="" style="outlineConnect=0;dashed=0;verticalLabelPosition=bottom;verticalAlign=top;align=center;html=1;shape=mxgraph.aws3.s3;fillColor=#E05243;gradientColor=none;" parent="1" vertex="1">
          <mxGeometry x="541.75" y="440" width="76.5" height="93" as="geometry" />
        </mxCell>
        <mxCell id="WGQSIC2b6Mcz66Ld2fvp-19" value="S3" style="text;html=1;strokeColor=none;fillColor=none;align=center;verticalAlign=middle;whiteSpace=wrap;rounded=0;" parent="1" vertex="1">
          <mxGeometry x="550" y="533" width="60" height="30" as="geometry" />
        </mxCell>
        <mxCell id="6TLDcmZ5Ti6WgdR_ZXG4-1" value="" style="shape=flexArrow;endArrow=classic;startArrow=classic;html=1;rounded=0;" parent="1" edge="1">
          <mxGeometry width="100" height="100" relative="1" as="geometry">
            <mxPoint x="742" y="610" as="sourcePoint" />
            <mxPoint x="842" y="510" as="targetPoint" />
          </mxGeometry>
        </mxCell>
        <mxCell id="6TLDcmZ5Ti6WgdR_ZXG4-2" value="" style="shape=flexArrow;endArrow=classic;html=1;rounded=0;" parent="1" edge="1">
          <mxGeometry width="50" height="50" relative="1" as="geometry">
            <mxPoint x="153" y="524" as="sourcePoint" />
            <mxPoint x="303" y="601" as="targetPoint" />
          </mxGeometry>
        </mxCell>
      </root>
    </mxGraphModel>
  </diagram>
  <diagram id="ksi0CECaVzp03T_kho_Z" name="Page-2">
    <mxGraphModel dx="1180" dy="432" grid="1" gridSize="10" guides="1" tooltips="1" connect="1" arrows="1" fold="1" page="0" pageScale="1" pageWidth="850" pageHeight="1100" math="0" shadow="0">
      <root>
        <mxCell id="0" />
        <mxCell id="1" parent="0" />
        <mxCell id="qUg5pmuqy2w3-YOL4n08-1" value="" style="sketch=0;outlineConnect=0;fontColor=#232F3E;gradientColor=none;fillColor=#4D27AA;strokeColor=none;dashed=0;verticalLabelPosition=bottom;verticalAlign=top;align=center;html=1;fontSize=12;fontStyle=0;aspect=fixed;pointerEvents=1;shape=mxgraph.aws4.cluster;" parent="1" vertex="1">
          <mxGeometry x="420" y="126" width="208" height="208" as="geometry" />
        </mxCell>
        <mxCell id="qUg5pmuqy2w3-YOL4n08-2" value="" style="image;html=1;image=img/lib/clip_art/computers/Virtual_Application_128x128.png" parent="1" vertex="1">
          <mxGeometry x="-80" y="150" width="180" height="160" as="geometry" />
        </mxCell>
        <mxCell id="qUg5pmuqy2w3-YOL4n08-3" value="" style="sketch=0;outlineConnect=0;fontColor=#232F3E;gradientColor=none;fillColor=#067F68;strokeColor=none;dashed=0;verticalLabelPosition=bottom;verticalAlign=top;align=center;html=1;fontSize=12;fontStyle=0;aspect=fixed;shape=mxgraph.aws4.agent2;" parent="1" vertex="1">
          <mxGeometry x="180" y="150" width="158" height="158" as="geometry" />
        </mxCell>
        <mxCell id="qUg5pmuqy2w3-YOL4n08-4" value="" style="shape=flexArrow;endArrow=classic;startArrow=classic;html=1;rounded=0;exitX=1;exitY=0.5;exitDx=0;exitDy=0;" parent="1" source="qUg5pmuqy2w3-YOL4n08-2" target="qUg5pmuqy2w3-YOL4n08-3" edge="1">
          <mxGeometry width="100" height="100" relative="1" as="geometry">
            <mxPoint x="110" y="230" as="sourcePoint" />
            <mxPoint x="170" y="230" as="targetPoint" />
          </mxGeometry>
        </mxCell>
        <mxCell id="qUg5pmuqy2w3-YOL4n08-5" value="" style="shape=flexArrow;endArrow=classic;startArrow=classic;html=1;rounded=0;exitX=1;exitY=0.5;exitDx=0;exitDy=0;" parent="1" edge="1">
          <mxGeometry width="100" height="100" relative="1" as="geometry">
            <mxPoint x="338" y="230.5" as="sourcePoint" />
            <mxPoint x="418" y="229.5" as="targetPoint" />
          </mxGeometry>
        </mxCell>
        <mxCell id="qUg5pmuqy2w3-YOL4n08-6" value="Vault Cluster" style="text;html=1;strokeColor=none;fillColor=none;align=center;verticalAlign=middle;whiteSpace=wrap;rounded=0;" parent="1" vertex="1">
          <mxGeometry x="500" y="370" width="80" height="20" as="geometry" />
        </mxCell>
        <mxCell id="qUg5pmuqy2w3-YOL4n08-7" value="Vault Agent" style="text;html=1;strokeColor=none;fillColor=none;align=center;verticalAlign=middle;whiteSpace=wrap;rounded=0;" parent="1" vertex="1">
          <mxGeometry x="200" y="370" width="80" height="20" as="geometry" />
        </mxCell>
        <mxCell id="qUg5pmuqy2w3-YOL4n08-8" value="Application - Approle" style="text;html=1;strokeColor=none;fillColor=none;align=center;verticalAlign=middle;whiteSpace=wrap;rounded=0;" parent="1" vertex="1">
          <mxGeometry x="-50" y="380" width="120" as="geometry" />
        </mxCell>
        <mxCell id="qUg5pmuqy2w3-YOL4n08-9" value="" style="sketch=0;points=[[0,0,0],[0.25,0,0],[0.5,0,0],[0.75,0,0],[1,0,0],[0,1,0],[0.25,1,0],[0.5,1,0],[0.75,1,0],[1,1,0],[0,0.25,0],[0,0.5,0],[0,0.75,0],[1,0.25,0],[1,0.5,0],[1,0.75,0]];outlineConnect=0;fontColor=#232F3E;gradientColor=#60A337;gradientDirection=north;fillColor=#277116;strokeColor=#ffffff;dashed=0;verticalLabelPosition=bottom;verticalAlign=top;align=center;html=1;fontSize=12;fontStyle=0;aspect=fixed;shape=mxgraph.aws4.resourceIcon;resIcon=mxgraph.aws4.file_cache;" parent="1" vertex="1">
          <mxGeometry x="190" y="68" width="58" height="58" as="geometry" />
        </mxCell>
        <mxCell id="qUg5pmuqy2w3-YOL4n08-10" value="" style="outlineConnect=0;dashed=0;verticalLabelPosition=bottom;verticalAlign=top;align=center;html=1;shape=mxgraph.aws3.add_on;fillColor=#759C3E;gradientColor=none;" parent="1" vertex="1">
          <mxGeometry x="288.5" y="83.5" width="49.5" height="27" as="geometry" />
        </mxCell>
        <mxCell id="qUg5pmuqy2w3-YOL4n08-11" value="Auto-Auth" style="text;html=1;strokeColor=none;fillColor=none;align=center;verticalAlign=middle;whiteSpace=wrap;rounded=0;" parent="1" vertex="1">
          <mxGeometry x="283.25" y="38" width="60" height="30" as="geometry" />
        </mxCell>
        <mxCell id="qUg5pmuqy2w3-YOL4n08-12" value="Cache" style="text;html=1;strokeColor=none;fillColor=none;align=center;verticalAlign=middle;whiteSpace=wrap;rounded=0;" parent="1" vertex="1">
          <mxGeometry x="190" y="38" width="60" height="30" as="geometry" />
        </mxCell>
      </root>
    </mxGraphModel>
  </diagram>
  <diagram id="L0TMgFr5euEjJdgqbQq4" name="Page-3">
    <mxGraphModel dx="1036" dy="621" grid="1" gridSize="10" guides="1" tooltips="1" connect="1" arrows="1" fold="1" page="0" pageScale="1" pageWidth="850" pageHeight="1100" math="0" shadow="0">
      <root>
        <mxCell id="0" />
        <mxCell id="1" parent="0" />
      </root>
    </mxGraphModel>
  </diagram>
  <diagram id="NAPpM57rq1z1Lp6_3i7n" name="Page-4">
    <mxGraphModel dx="1436" dy="1021" grid="1" gridSize="10" guides="1" tooltips="1" connect="1" arrows="1" fold="1" page="0" pageScale="1" pageWidth="850" pageHeight="1100" math="0" shadow="0">
      <root>
        <mxCell id="0" />
        <mxCell id="1" parent="0" />
        <mxCell id="Oz5pPytIg9TMKyPUi5eN-1" value="" style="sketch=0;points=[[0,0,0],[0.25,0,0],[0.5,0,0],[0.75,0,0],[1,0,0],[0,1,0],[0.25,1,0],[0.5,1,0],[0.75,1,0],[1,1,0],[0,0.25,0],[0,0.5,0],[0,0.75,0],[1,0.25,0],[1,0.5,0],[1,0.75,0]];outlineConnect=0;fontColor=#232F3E;gradientColor=#FF4F8B;gradientDirection=north;fillColor=#BC1356;strokeColor=#ffffff;dashed=0;verticalLabelPosition=bottom;verticalAlign=top;align=center;html=1;fontSize=12;fontStyle=0;aspect=fixed;shape=mxgraph.aws4.resourceIcon;resIcon=mxgraph.aws4.sns;" parent="1" vertex="1">
          <mxGeometry x="270" y="152" width="78" height="78" as="geometry" />
        </mxCell>
        <mxCell id="Oz5pPytIg9TMKyPUi5eN-2" value="" style="verticalLabelPosition=bottom;verticalAlign=top;html=1;shape=mxgraph.basic.sun" parent="1" vertex="1">
          <mxGeometry x="70" y="69" width="100" height="100" as="geometry" />
        </mxCell>
        <mxCell id="Oz5pPytIg9TMKyPUi5eN-3" value="C#" style="text;html=1;strokeColor=none;fillColor=none;align=center;verticalAlign=middle;whiteSpace=wrap;rounded=0;" parent="1" vertex="1">
          <mxGeometry x="90" y="104" width="60" height="30" as="geometry" />
        </mxCell>
        <mxCell id="Oz5pPytIg9TMKyPUi5eN-4" value="" style="html=1;verticalLabelPosition=bottom;align=center;labelBackgroundColor=#ffffff;verticalAlign=top;strokeWidth=2;strokeColor=#0080F0;shadow=0;dashed=0;shape=mxgraph.ios7.icons.sun;pointerEvents=1" parent="1" vertex="1">
          <mxGeometry x="40" y="251" width="190" height="130" as="geometry" />
        </mxCell>
        <mxCell id="Oz5pPytIg9TMKyPUi5eN-5" value="node.js" style="text;html=1;strokeColor=none;fillColor=none;align=center;verticalAlign=middle;whiteSpace=wrap;rounded=0;" parent="1" vertex="1">
          <mxGeometry x="105" y="301" width="60" height="30" as="geometry" />
        </mxCell>
        <mxCell id="q6yAG348eFIPnBJ4Xu5y-1" value="" style="shape=ext;double=1;rounded=1;whiteSpace=wrap;html=1;fillColor=none;strokeColor=default;glass=1;" parent="1" vertex="1">
          <mxGeometry x="34" y="30" width="550" height="430" as="geometry" />
        </mxCell>
        <mxCell id="q6yAG348eFIPnBJ4Xu5y-2" value="AWS" style="text;html=1;strokeColor=none;fillColor=none;align=center;verticalAlign=middle;whiteSpace=wrap;rounded=0;" parent="1" vertex="1">
          <mxGeometry x="460" y="-10" width="60" height="30" as="geometry" />
        </mxCell>
        <mxCell id="q6yAG348eFIPnBJ4Xu5y-3" value="" style="ellipse;shape=cloud;whiteSpace=wrap;html=1;fillColor=none;" parent="1" vertex="1">
          <mxGeometry x="430" y="-50" width="120" height="80" as="geometry" />
        </mxCell>
        <mxCell id="q6yAG348eFIPnBJ4Xu5y-5" value="C# - Terraform" style="text;html=1;strokeColor=none;fillColor=none;align=center;verticalAlign=middle;whiteSpace=wrap;rounded=0;" parent="1" vertex="1">
          <mxGeometry x="-130" y="100" width="120" height="20" as="geometry" />
        </mxCell>
        <mxCell id="q6yAG348eFIPnBJ4Xu5y-6" value="" style="sketch=0;points=[[0,0,0],[0.25,0,0],[0.5,0,0],[0.75,0,0],[1,0,0],[0,1,0],[0.25,1,0],[0.5,1,0],[0.75,1,0],[1,1,0],[0,0.25,0],[0,0.5,0],[0,0.75,0],[1,0.25,0],[1,0.5,0],[1,0.75,0]];outlineConnect=0;fontColor=#232F3E;gradientColor=#FF4F8B;gradientDirection=north;fillColor=#BC1356;strokeColor=#ffffff;dashed=0;verticalLabelPosition=bottom;verticalAlign=top;align=center;html=1;fontSize=12;fontStyle=0;aspect=fixed;shape=mxgraph.aws4.resourceIcon;resIcon=mxgraph.aws4.sqs;" parent="1" vertex="1">
          <mxGeometry x="451" y="74" width="78" height="78" as="geometry" />
        </mxCell>
        <mxCell id="q6yAG348eFIPnBJ4Xu5y-7" value="" style="outlineConnect=0;dashed=0;verticalLabelPosition=bottom;verticalAlign=top;align=center;html=1;shape=mxgraph.aws3.lambda;fillColor=#F58534;gradientColor=none;" parent="1" vertex="1">
          <mxGeometry x="452.5" y="170" width="76.5" height="93" as="geometry" />
        </mxCell>
        <mxCell id="q6yAG348eFIPnBJ4Xu5y-8" value="" style="outlineConnect=0;dashed=0;verticalLabelPosition=bottom;verticalAlign=top;align=center;html=1;shape=mxgraph.aws3.lambda_function;fillColor=#F58534;gradientColor=none;" parent="1" vertex="1">
          <mxGeometry x="460" y="280" width="69" height="72" as="geometry" />
        </mxCell>
        <mxCell id="q6yAG348eFIPnBJ4Xu5y-9" value="" style="outlineConnect=0;dashed=0;verticalLabelPosition=bottom;verticalAlign=top;align=center;html=1;shape=mxgraph.aws3.http_protocol;fillColor=#5294CF;gradientColor=none;" parent="1" vertex="1">
          <mxGeometry x="463" y="380" width="63" height="66" as="geometry" />
        </mxCell>
        <mxCell id="q6yAG348eFIPnBJ4Xu5y-10" value="" style="shape=stencil(fZbdcgIhDIWfZm8zQAg/17Z9j85U606tdqz9e/tmZ0c0uJ47xP0I5JwEBl59bp8/1kNwn6fj4W39M76ctgM/DCGM++36OJ50NPDjwKvN4bh+PR6+9i/z74/n6ctp9H74nlb4nbmSKZeJCu5vngmZ6jzzNAO7cX8FVKEsBuBKrgKg9oAE8gkCbLeUhEoEQKSUDZDLeWYRKIl8MEDRmHwfyBrBG6Amyu4+kDxxMoB3jhwgYu7TVAsVkFcWCs4CTBEoF4RctKeOxHIf8IXYpikHikAIf+MNUW94AGSSaoAoFIE3AlOyeWU+p2E5S9yfQZcQILVuQOwZdJNoS9Ls3wA5u2XZTIHECqeJ9kDpSaauRiNVcAY1QhdBzeLBli5WazpkSsBLV25uRaqWRyFawTQzRRIQYirJzq5atkBqLfouwqUxLBepthWb10vrWZY6UOAeyKCCtDV625mm9gmUC4Wc3VLJMMIE1BsA2FW9JraVlQB7n3c9oMKhCLEvIM1zBPZ25/umNQ1tVEC2G+fFCC8g398O2hNQuQlVu752DBfA+q0ptnqO5JFmeuIuo9DY7KjY71UxdJV4EntifPWorW++R/dC4t7V3DlIB5cHx2bc7eb3yvX//QNFp+bHDT/+Aw==);lineShape=1;" parent="1" vertex="1">
          <mxGeometry x="774.3742151915158" y="150.67683818649311" width="5.497105614253194" height="5.488513195715073" as="geometry" />
        </mxCell>
        <mxCell id="QsyDGTikSFRsUuGcQjID-1" value="SNS" style="text;html=1;strokeColor=none;fillColor=none;align=center;verticalAlign=middle;whiteSpace=wrap;rounded=0;" parent="1" vertex="1">
          <mxGeometry x="279" y="251" width="60" height="30" as="geometry" />
        </mxCell>
        <mxCell id="QsyDGTikSFRsUuGcQjID-2" value="SQS" style="text;html=1;strokeColor=none;fillColor=none;align=center;verticalAlign=middle;whiteSpace=wrap;rounded=0;" parent="1" vertex="1">
          <mxGeometry x="460" y="44" width="60" height="30" as="geometry" />
        </mxCell>
        <mxCell id="QsyDGTikSFRsUuGcQjID-4" value="lambda&lt;br&gt;" style="text;html=1;strokeColor=none;fillColor=none;align=center;verticalAlign=middle;whiteSpace=wrap;rounded=0;" parent="1" vertex="1">
          <mxGeometry x="510" y="251" width="60" height="30" as="geometry" />
        </mxCell>
        <mxCell id="gdhr660lxkHVsTeBEtiV-1" value="node.js - Terraform" style="text;html=1;strokeColor=none;fillColor=none;align=center;verticalAlign=middle;whiteSpace=wrap;rounded=0;" parent="1" vertex="1">
          <mxGeometry x="-160" y="310" width="150" height="30" as="geometry" />
        </mxCell>
        <mxCell id="j65owhfD_qWNth8DYcBE-1" value="" style="outlineConnect=0;dashed=0;verticalLabelPosition=bottom;verticalAlign=top;align=center;html=1;shape=mxgraph.aws3.ec2;fillColor=#F58534;gradientColor=none;" parent="1" vertex="1">
          <mxGeometry x="210" y="80" width="40" height="57" as="geometry" />
        </mxCell>
        <mxCell id="j65owhfD_qWNth8DYcBE-2" value="" style="outlineConnect=0;dashed=0;verticalLabelPosition=bottom;verticalAlign=top;align=center;html=1;shape=mxgraph.aws3.ec2;fillColor=#F58534;gradientColor=none;" parent="1" vertex="1">
          <mxGeometry x="200" y="384.5" width="40" height="57" as="geometry" />
        </mxCell>
        <mxCell id="j65owhfD_qWNth8DYcBE-3" value="" style="ellipse;whiteSpace=wrap;html=1;aspect=fixed;fillColor=none;" parent="1" vertex="1">
          <mxGeometry x="55" y="-40" width="330" height="330" as="geometry" />
        </mxCell>
        <mxCell id="j65owhfD_qWNth8DYcBE-4" value="" style="ellipse;whiteSpace=wrap;html=1;aspect=fixed;fillColor=none;" parent="1" vertex="1">
          <mxGeometry x="70" y="111.5" width="330" height="330" as="geometry" />
        </mxCell>
      </root>
    </mxGraphModel>
  </diagram>
  <diagram id="MXA6qyJWlRMC7Ng3h5uS" name="Page-5">
    <mxGraphModel dx="1836" dy="621" grid="1" gridSize="10" guides="1" tooltips="1" connect="1" arrows="1" fold="1" page="0" pageScale="1" pageWidth="850" pageHeight="1100" math="0" shadow="0">
      <root>
        <mxCell id="0" />
        <mxCell id="1" parent="0" />
        <mxCell id="EJJSfg-hDTAeHkqtBWdX-1" value="Terraform" style="text;html=1;strokeColor=none;fillColor=none;align=center;verticalAlign=middle;whiteSpace=wrap;rounded=0;" parent="1" vertex="1">
          <mxGeometry x="-360" y="225" width="60" height="30" as="geometry" />
        </mxCell>
        <mxCell id="EJJSfg-hDTAeHkqtBWdX-3" value="" style="ellipse;shape=cloud;whiteSpace=wrap;html=1;" parent="1" vertex="1">
          <mxGeometry x="30" y="20" width="160" height="90" as="geometry" />
        </mxCell>
        <mxCell id="EJJSfg-hDTAeHkqtBWdX-4" value="aws" style="text;html=1;strokeColor=none;fillColor=none;align=center;verticalAlign=middle;whiteSpace=wrap;rounded=0;" parent="1" vertex="1">
          <mxGeometry x="90" y="60" width="60" height="30" as="geometry" />
        </mxCell>
        <mxCell id="EJJSfg-hDTAeHkqtBWdX-5" value="" style="rounded=0;whiteSpace=wrap;html=1;fillColor=none;" parent="1" vertex="1">
          <mxGeometry x="-390" y="210" width="120" height="60" as="geometry" />
        </mxCell>
        <mxCell id="EJJSfg-hDTAeHkqtBWdX-7" value="" style="rounded=0;whiteSpace=wrap;html=1;fillColor=none;" parent="1" vertex="1">
          <mxGeometry x="-260" y="130" width="460" height="280" as="geometry" />
        </mxCell>
        <mxCell id="EJJSfg-hDTAeHkqtBWdX-8" value="" style="outlineConnect=0;dashed=0;verticalLabelPosition=bottom;verticalAlign=top;align=center;html=1;shape=mxgraph.aws3.ec2;fillColor=#F58534;gradientColor=none;" parent="1" vertex="1">
          <mxGeometry x="-190" y="180" width="76.5" height="93" as="geometry" />
        </mxCell>
        <mxCell id="EJJSfg-hDTAeHkqtBWdX-9" value="" style="sketch=0;points=[[0,0,0],[0.25,0,0],[0.5,0,0],[0.75,0,0],[1,0,0],[0,1,0],[0.25,1,0],[0.5,1,0],[0.75,1,0],[1,1,0],[0,0.25,0],[0,0.5,0],[0,0.75,0],[1,0.25,0],[1,0.5,0],[1,0.75,0]];outlineConnect=0;fontColor=#232F3E;gradientColor=#60A337;gradientDirection=north;fillColor=#277116;strokeColor=#ffffff;dashed=0;verticalLabelPosition=bottom;verticalAlign=top;align=center;html=1;fontSize=12;fontStyle=0;aspect=fixed;shape=mxgraph.aws4.resourceIcon;resIcon=mxgraph.aws4.s3;" parent="1" vertex="1">
          <mxGeometry x="-18" y="195" width="78" height="78" as="geometry" />
        </mxCell>
        <mxCell id="EJJSfg-hDTAeHkqtBWdX-10" value="" style="image;aspect=fixed;perimeter=ellipsePerimeter;html=1;align=center;shadow=0;dashed=0;spacingTop=3;image=img/lib/active_directory/database_cube.svg;" parent="1" vertex="1">
          <mxGeometry x="-90" y="300" width="72" height="80" as="geometry" />
        </mxCell>
        <mxCell id="EJJSfg-hDTAeHkqtBWdX-12" value="" style="html=1;verticalLabelPosition=bottom;align=center;labelBackgroundColor=#ffffff;verticalAlign=top;strokeWidth=2;strokeColor=#0080F0;shadow=0;dashed=0;shape=mxgraph.ios7.icons.user;" parent="1" vertex="1">
          <mxGeometry x="-470" y="140" width="30" height="30" as="geometry" />
        </mxCell>
        <mxCell id="EJJSfg-hDTAeHkqtBWdX-14" value="" style="html=1;verticalLabelPosition=bottom;align=center;labelBackgroundColor=#ffffff;verticalAlign=top;strokeWidth=2;strokeColor=#0080F0;shadow=0;dashed=0;shape=mxgraph.ios7.icons.user;" parent="1" vertex="1">
          <mxGeometry x="-470" y="320" width="30" height="30" as="geometry" />
        </mxCell>
        <mxCell id="EJJSfg-hDTAeHkqtBWdX-15" value="Create" style="text;html=1;strokeColor=none;fillColor=none;align=center;verticalAlign=middle;whiteSpace=wrap;rounded=0;" parent="1" vertex="1">
          <mxGeometry x="-410" y="150" width="60" height="30" as="geometry" />
        </mxCell>
        <mxCell id="EJJSfg-hDTAeHkqtBWdX-16" value="destroy" style="text;html=1;strokeColor=none;fillColor=none;align=center;verticalAlign=middle;whiteSpace=wrap;rounded=0;" parent="1" vertex="1">
          <mxGeometry x="-400" y="325" width="60" height="30" as="geometry" />
        </mxCell>
        <mxCell id="IyX7iSTzFh7aK-qpR05X-1" value="" style="shape=actor;whiteSpace=wrap;html=1;" parent="1" vertex="1">
          <mxGeometry x="-370" y="35" width="40" height="60" as="geometry" />
        </mxCell>
        <mxCell id="XJ1gvbZT6OkiFCLuZlnf-1" value="" style="sketch=0;points=[[0,0,0],[0.25,0,0],[0.5,0,0],[0.75,0,0],[1,0,0],[0,1,0],[0.25,1,0],[0.5,1,0],[0.75,1,0],[1,1,0],[0,0.25,0],[0,0.5,0],[0,0.75,0],[1,0.25,0],[1,0.5,0],[1,0.75,0]];outlineConnect=0;fontColor=#232F3E;gradientColor=#FF4F8B;gradientDirection=north;fillColor=#BC1356;strokeColor=#ffffff;dashed=0;verticalLabelPosition=bottom;verticalAlign=top;align=center;html=1;fontSize=12;fontStyle=0;aspect=fixed;shape=mxgraph.aws4.resourceIcon;resIcon=mxgraph.aws4.sqs;" parent="1" vertex="1">
          <mxGeometry x="50" y="302" width="78" height="78" as="geometry" />
        </mxCell>
        <mxCell id="XJ1gvbZT6OkiFCLuZlnf-2" value="" style="sketch=0;points=[[0,0,0],[0.25,0,0],[0.5,0,0],[0.75,0,0],[1,0,0],[0,1,0],[0.25,1,0],[0.5,1,0],[0.75,1,0],[1,1,0],[0,0.25,0],[0,0.5,0],[0,0.75,0],[1,0.25,0],[1,0.5,0],[1,0.75,0]];outlineConnect=0;fontColor=#232F3E;gradientColor=#FF4F8B;gradientDirection=north;fillColor=#BC1356;strokeColor=#ffffff;dashed=0;verticalLabelPosition=bottom;verticalAlign=top;align=center;html=1;fontSize=12;fontStyle=0;aspect=fixed;shape=mxgraph.aws4.resourceIcon;resIcon=mxgraph.aws4.sns;" parent="1" vertex="1">
          <mxGeometry x="100" y="160" width="78" height="78" as="geometry" />
        </mxCell>
      </root>
    </mxGraphModel>
  </diagram>
  <diagram id="3ZSGVNRjEtL3_qCEoQgi" name="Page-6">
    <mxGraphModel dx="1436" dy="1021" grid="1" gridSize="10" guides="1" tooltips="1" connect="1" arrows="1" fold="1" page="0" pageScale="1" pageWidth="850" pageHeight="1100" math="0" shadow="0">
      <root>
        <mxCell id="0" />
        <mxCell id="1" parent="0" />
        <mxCell id="n5j6BEwDn61HnPGbrg-R-2" value="" style="rounded=0;whiteSpace=wrap;html=1;" parent="1" vertex="1">
          <mxGeometry x="70" y="-160" width="530" height="310" as="geometry" />
        </mxCell>
        <mxCell id="n5j6BEwDn61HnPGbrg-R-3" value="" style="rounded=0;whiteSpace=wrap;html=1;" parent="1" vertex="1">
          <mxGeometry x="120" y="-100" width="110" height="200" as="geometry" />
        </mxCell>
        <mxCell id="n5j6BEwDn61HnPGbrg-R-4" value="" style="rounded=0;whiteSpace=wrap;html=1;" parent="1" vertex="1">
          <mxGeometry x="440" y="-105" width="110" height="200" as="geometry" />
        </mxCell>
        <mxCell id="n5j6BEwDn61HnPGbrg-R-5" value="" style="rounded=0;whiteSpace=wrap;html=1;" parent="1" vertex="1">
          <mxGeometry x="280" y="-105" width="110" height="200" as="geometry" />
        </mxCell>
        <mxCell id="n5j6BEwDn61HnPGbrg-R-6" value="order" style="text;html=1;strokeColor=none;fillColor=none;align=center;verticalAlign=middle;whiteSpace=wrap;rounded=0;" parent="1" vertex="1">
          <mxGeometry x="145" y="110" width="60" height="30" as="geometry" />
        </mxCell>
        <mxCell id="n5j6BEwDn61HnPGbrg-R-7" value="Payment" style="text;html=1;strokeColor=none;fillColor=none;align=center;verticalAlign=middle;whiteSpace=wrap;rounded=0;" parent="1" vertex="1">
          <mxGeometry x="305" y="110" width="60" height="30" as="geometry" />
        </mxCell>
        <mxCell id="n5j6BEwDn61HnPGbrg-R-8" value="Inventory &amp;amp; Shipping" style="text;html=1;strokeColor=none;fillColor=none;align=center;verticalAlign=middle;whiteSpace=wrap;rounded=0;" parent="1" vertex="1">
          <mxGeometry x="480" y="110" width="60" height="30" as="geometry" />
        </mxCell>
        <mxCell id="n5j6BEwDn61HnPGbrg-R-9" value="" style="outlineConnect=0;dashed=0;verticalLabelPosition=bottom;verticalAlign=top;align=center;html=1;shape=mxgraph.aws3.lambda_function;fillColor=#F58534;gradientColor=none;" parent="1" vertex="1">
          <mxGeometry x="147.5" y="-70" width="55" height="62" as="geometry" />
        </mxCell>
        <mxCell id="n5j6BEwDn61HnPGbrg-R-10" value="" style="outlineConnect=0;dashed=0;verticalLabelPosition=bottom;verticalAlign=top;align=center;html=1;shape=mxgraph.aws3.lambda_function;fillColor=#F58534;gradientColor=none;" parent="1" vertex="1">
          <mxGeometry x="480" y="-40" width="49.5" height="52" as="geometry" />
        </mxCell>
        <mxCell id="n5j6BEwDn61HnPGbrg-R-11" value="" style="outlineConnect=0;dashed=0;verticalLabelPosition=bottom;verticalAlign=top;align=center;html=1;shape=mxgraph.aws3.lambda_function;fillColor=#5294CF;gradientColor=none;" parent="1" vertex="1">
          <mxGeometry x="312.5" y="-40" width="45" height="52" as="geometry" />
        </mxCell>
        <mxCell id="n5j6BEwDn61HnPGbrg-R-12" value="" style="sketch=0;outlineConnect=0;fontColor=#232F3E;gradientColor=none;fillColor=#232F3D;strokeColor=none;dashed=0;verticalLabelPosition=bottom;verticalAlign=top;align=center;html=1;fontSize=12;fontStyle=0;aspect=fixed;pointerEvents=1;shape=mxgraph.aws4.user;" parent="1" vertex="1">
          <mxGeometry x="-70" y="-40" width="78" height="78" as="geometry" />
        </mxCell>
        <mxCell id="n5j6BEwDn61HnPGbrg-R-13" value="aws" style="text;html=1;strokeColor=none;fillColor=none;align=center;verticalAlign=middle;whiteSpace=wrap;rounded=0;" parent="1" vertex="1">
          <mxGeometry x="510" y="-200" width="60" height="30" as="geometry" />
        </mxCell>
        <mxCell id="n5j6BEwDn61HnPGbrg-R-14" value="Account - Orders" style="text;html=1;strokeColor=none;fillColor=none;align=center;verticalAlign=middle;whiteSpace=wrap;rounded=0;" parent="1" vertex="1">
          <mxGeometry x="115" y="-130" width="120" height="30" as="geometry" />
        </mxCell>
        <mxCell id="n5j6BEwDn61HnPGbrg-R-15" value="Account - Inventory" style="text;html=1;strokeColor=none;fillColor=none;align=center;verticalAlign=middle;whiteSpace=wrap;rounded=0;" parent="1" vertex="1">
          <mxGeometry x="430" y="-135" width="120" height="30" as="geometry" />
        </mxCell>
        <mxCell id="n5j6BEwDn61HnPGbrg-R-16" value="Account - Payment" style="text;html=1;strokeColor=none;fillColor=none;align=center;verticalAlign=middle;whiteSpace=wrap;rounded=0;" parent="1" vertex="1">
          <mxGeometry x="270" y="-135" width="120" height="30" as="geometry" />
        </mxCell>
        <mxCell id="n5j6BEwDn61HnPGbrg-R-17" value="" style="shape=flexArrow;endArrow=classic;html=1;rounded=0;" parent="1" edge="1">
          <mxGeometry width="50" height="50" relative="1" as="geometry">
            <mxPoint y="10" as="sourcePoint" />
            <mxPoint x="60" y="10" as="targetPoint" />
          </mxGeometry>
        </mxCell>
        <mxCell id="ki2Yuj9sRGTW5OWOE-TR-1" value="" style="sketch=0;points=[[0,0,0],[0.25,0,0],[0.5,0,0],[0.75,0,0],[1,0,0],[0,1,0],[0.25,1,0],[0.5,1,0],[0.75,1,0],[1,1,0],[0,0.25,0],[0,0.5,0],[0,0.75,0],[1,0.25,0],[1,0.5,0],[1,0.75,0]];outlineConnect=0;fontColor=#232F3E;gradientColor=#60A337;gradientDirection=north;fillColor=#277116;strokeColor=#ffffff;dashed=0;verticalLabelPosition=bottom;verticalAlign=top;align=center;html=1;fontSize=12;fontStyle=0;aspect=fixed;shape=mxgraph.aws4.resourceIcon;resIcon=mxgraph.aws4.s3;hachureGap=4;jiggle=2;curveFitting=1;fontFamily=Architects Daughter;fontSource=https%3A%2F%2Ffonts.googleapis.com%2Fcss%3Ffamily%3DArchitects%2BDaughter;" vertex="1" parent="1">
          <mxGeometry x="136" y="17" width="78" height="78" as="geometry" />
        </mxCell>
        <mxCell id="ki2Yuj9sRGTW5OWOE-TR-2" value="" style="sketch=0;outlineConnect=0;fontColor=#232F3E;gradientColor=none;fillColor=#B0084D;strokeColor=none;dashed=0;verticalLabelPosition=bottom;verticalAlign=top;align=center;html=1;fontSize=12;fontStyle=0;aspect=fixed;pointerEvents=1;shape=mxgraph.aws4.eventbridge_saas_partner_event_bus_resource;hachureGap=4;jiggle=2;curveFitting=1;fontFamily=Architects Daughter;fontSource=https%3A%2F%2Ffonts.googleapis.com%2Fcss%3Ffamily%3DArchitects%2BDaughter;" vertex="1" parent="1">
          <mxGeometry x="296" y="12" width="78" height="78" as="geometry" />
        </mxCell>
      </root>
    </mxGraphModel>
  </diagram>
  <diagram id="wLPoYzHhzTRBsUwaNYxh" name="Page-7">
    <mxGraphModel dx="1036" dy="621" grid="1" gridSize="10" guides="1" tooltips="1" connect="1" arrows="1" fold="1" page="1" pageScale="1" pageWidth="850" pageHeight="1100" math="0" shadow="0">
      <root>
        <mxCell id="0" />
        <mxCell id="1" parent="0" />
        <mxCell id="8JktLvF3mFEwutzXbGdm-1" value="" style="rounded=1;whiteSpace=wrap;html=1;" parent="1" vertex="1">
          <mxGeometry x="190" y="170" width="400" height="250" as="geometry" />
        </mxCell>
        <mxCell id="8JktLvF3mFEwutzXbGdm-2" value="" style="whiteSpace=wrap;html=1;aspect=fixed;" parent="1" vertex="1">
          <mxGeometry x="240" y="210" width="80" height="80" as="geometry" />
        </mxCell>
        <mxCell id="8JktLvF3mFEwutzXbGdm-3" value="" style="shape=cylinder3;whiteSpace=wrap;html=1;boundedLbl=1;backgroundOutline=1;size=15;" parent="1" vertex="1">
          <mxGeometry x="250" y="330" width="60" height="80" as="geometry" />
        </mxCell>
        <mxCell id="8JktLvF3mFEwutzXbGdm-4" value="" style="ellipse;whiteSpace=wrap;html=1;aspect=fixed;" parent="1" vertex="1">
          <mxGeometry x="390" y="230" width="80" height="80" as="geometry" />
        </mxCell>
        <mxCell id="8JktLvF3mFEwutzXbGdm-5" value="Admin" style="text;html=1;strokeColor=none;fillColor=none;align=center;verticalAlign=middle;whiteSpace=wrap;rounded=0;" parent="1" vertex="1">
          <mxGeometry x="250" y="235" width="60" height="30" as="geometry" />
        </mxCell>
        <mxCell id="8JktLvF3mFEwutzXbGdm-6" value="DB" style="text;html=1;strokeColor=none;fillColor=none;align=center;verticalAlign=middle;whiteSpace=wrap;rounded=0;" parent="1" vertex="1">
          <mxGeometry x="250" y="355" width="60" height="30" as="geometry" />
        </mxCell>
        <mxCell id="8JktLvF3mFEwutzXbGdm-7" value="Network" style="text;html=1;strokeColor=none;fillColor=none;align=center;verticalAlign=middle;whiteSpace=wrap;rounded=0;" parent="1" vertex="1">
          <mxGeometry x="400" y="260" width="60" height="30" as="geometry" />
        </mxCell>
        <mxCell id="8JktLvF3mFEwutzXbGdm-8" value="Terraform" style="text;html=1;strokeColor=none;fillColor=none;align=center;verticalAlign=middle;whiteSpace=wrap;rounded=0;" parent="1" vertex="1">
          <mxGeometry x="90" y="280" width="60" height="30" as="geometry" />
        </mxCell>
        <mxCell id="8JktLvF3mFEwutzXbGdm-9" value="aws" style="text;html=1;strokeColor=none;fillColor=none;align=center;verticalAlign=middle;whiteSpace=wrap;rounded=0;" parent="1" vertex="1">
          <mxGeometry x="490" y="130" width="60" height="30" as="geometry" />
        </mxCell>
        <mxCell id="zp1Sjl9Y-TTU0D-AK4Ns-1" value="" style="ellipse;whiteSpace=wrap;html=1;aspect=fixed;sketch=1;hachureGap=4;jiggle=2;curveFitting=1;fontFamily=Architects Daughter;fontSource=https%3A%2F%2Ffonts.googleapis.com%2Fcss%3Ffamily%3DArchitects%2BDaughter;fontSize=20;" vertex="1" parent="1">
          <mxGeometry x="470" y="330" width="80" height="80" as="geometry" />
        </mxCell>
      </root>
    </mxGraphModel>
  </diagram>
  <diagram id="JEHhS27__8mRZF6y4JKb" name="Page-8">
    <mxGraphModel dx="1036" dy="621" grid="1" gridSize="10" guides="1" tooltips="1" connect="1" arrows="1" fold="1" page="1" pageScale="1" pageWidth="850" pageHeight="1100" math="0" shadow="0">
      <root>
        <mxCell id="0" />
        <mxCell id="1" parent="0" />
        <mxCell id="ijBRM8KtSVChGz23ZZcr-1" value="" style="outlineConnect=0;dashed=0;verticalLabelPosition=bottom;verticalAlign=top;align=center;html=1;shape=mxgraph.aws3.ec2;fillColor=#F58534;gradientColor=none;" parent="1" vertex="1">
          <mxGeometry x="720" y="90" width="76.5" height="93" as="geometry" />
        </mxCell>
        <mxCell id="ijBRM8KtSVChGz23ZZcr-2" value="" style="outlineConnect=0;dashed=0;verticalLabelPosition=bottom;verticalAlign=top;align=center;html=1;shape=mxgraph.aws3.ec2;fillColor=#F58534;gradientColor=none;" parent="1" vertex="1">
          <mxGeometry x="510" width="76.5" height="93" as="geometry" />
        </mxCell>
        <mxCell id="ijBRM8KtSVChGz23ZZcr-3" value="" style="outlineConnect=0;dashed=0;verticalLabelPosition=bottom;verticalAlign=top;align=center;html=1;shape=mxgraph.aws3.ec2;fillColor=#F58534;gradientColor=none;" parent="1" vertex="1">
          <mxGeometry x="570" y="90" width="76.5" height="93" as="geometry" />
        </mxCell>
        <mxCell id="ijBRM8KtSVChGz23ZZcr-4" value="" style="outlineConnect=0;dashed=0;verticalLabelPosition=bottom;verticalAlign=top;align=center;html=1;shape=mxgraph.aws3.ec2;fillColor=#F58534;gradientColor=none;" parent="1" vertex="1">
          <mxGeometry x="300" y="180" width="76.5" height="93" as="geometry" />
        </mxCell>
        <mxCell id="ijBRM8KtSVChGz23ZZcr-5" value="" style="rounded=0;whiteSpace=wrap;html=1;" parent="1" vertex="1">
          <mxGeometry x="140" y="160" width="418.25" height="280" as="geometry" />
        </mxCell>
        <mxCell id="ijBRM8KtSVChGz23ZZcr-6" value="Narfi" style="text;html=1;strokeColor=none;fillColor=none;align=center;verticalAlign=middle;whiteSpace=wrap;rounded=0;" parent="1" vertex="1">
          <mxGeometry x="250" y="50" width="60" height="30" as="geometry" />
        </mxCell>
      </root>
    </mxGraphModel>
  </diagram>
  <diagram id="QjoeDO9zn3JR4C2d7bJO" name="Page-9">
    <mxGraphModel dx="4336" dy="621" grid="1" gridSize="9" guides="0" tooltips="1" connect="0" arrows="0" fold="1" page="1" pageScale="1" pageWidth="3300" pageHeight="4681" math="0" shadow="0">
      <root>
        <mxCell id="0" />
        <mxCell id="1" parent="0" />
        <mxCell id="hcfl6kQtRpzLem7ZkJEF-2" value="IPAM - IP Address Manager" style="text;html=1;strokeColor=none;fillColor=none;align=center;verticalAlign=middle;whiteSpace=wrap;rounded=0;fontSize=20;fontFamily=Architects Daughter;" parent="1" vertex="1">
          <mxGeometry x="60" y="40" width="292" height="20" as="geometry" />
        </mxCell>
        <mxCell id="hcfl6kQtRpzLem7ZkJEF-3" value="" style="ellipse;whiteSpace=wrap;html=1;aspect=fixed;sketch=1;hachureGap=4;jiggle=2;curveFitting=1;fontFamily=Architects Daughter;fontSource=https%3A%2F%2Ffonts.googleapis.com%2Fcss%3Ffamily%3DArchitects%2BDaughter;fontSize=20;" parent="1" vertex="1">
          <mxGeometry x="-60" y="160" width="80" height="80" as="geometry" />
        </mxCell>
        <mxCell id="hcfl6kQtRpzLem7ZkJEF-4" value="Scope" style="text;html=1;strokeColor=none;fillColor=none;align=center;verticalAlign=middle;whiteSpace=wrap;rounded=0;fontSize=20;fontFamily=Architects Daughter;" parent="1" vertex="1">
          <mxGeometry x="-50" y="185" width="60" height="30" as="geometry" />
        </mxCell>
        <mxCell id="hcfl6kQtRpzLem7ZkJEF-6" value="Info" style="rounded=1;whiteSpace=wrap;html=1;arcSize=50;strokeColor=none;strokeWidth=1;fillColor=#1CA5B8;fontColor=#ffffff;whiteSpace=wrap;align=left;verticalAlign=middle;spacingLeft=0;fontStyle=1;fontSize=14;spacing=10;sketch=1;hachureGap=4;jiggle=2;curveFitting=1;fontFamily=Architects Daughter;fontSource=https%3A%2F%2Ffonts.googleapis.com%2Fcss%3Ffamily%3DArchitects%2BDaughter;" parent="1" vertex="1">
          <mxGeometry x="110" y="170" width="130" height="60" as="geometry" />
        </mxCell>
        <mxCell id="hcfl6kQtRpzLem7ZkJEF-7" value="Pool" style="text;html=1;strokeColor=none;fillColor=none;align=center;verticalAlign=middle;whiteSpace=wrap;rounded=0;fontSize=20;fontFamily=Architects Daughter;" parent="1" vertex="1">
          <mxGeometry x="150" y="185" width="60" height="30" as="geometry" />
        </mxCell>
        <mxCell id="hcfl6kQtRpzLem7ZkJEF-8" value="" style="sketch=0;outlineConnect=0;fontColor=#232F3E;gradientColor=none;fillColor=#067F68;strokeColor=none;dashed=0;verticalLabelPosition=bottom;verticalAlign=top;align=center;html=1;fontSize=12;fontStyle=0;aspect=fixed;shape=mxgraph.aws4.migration_hub_refactor_spaces_environments;hachureGap=4;jiggle=2;curveFitting=1;fontFamily=Architects Daughter;fontSource=https%3A%2F%2Ffonts.googleapis.com%2Fcss%3Ffamily%3DArchitects%2BDaughter;" parent="1" vertex="1">
          <mxGeometry x="352" y="176" width="48" height="48" as="geometry" />
        </mxCell>
        <mxCell id="hcfl6kQtRpzLem7ZkJEF-9" value="Allocation" style="text;html=1;strokeColor=none;fillColor=none;align=center;verticalAlign=middle;whiteSpace=wrap;rounded=0;fontSize=20;fontFamily=Architects Daughter;" parent="1" vertex="1">
          <mxGeometry x="335.5" y="230" width="81" height="20" as="geometry" />
        </mxCell>
        <mxCell id="hcfl6kQtRpzLem7ZkJEF-11" value="" style="rounded=1;whiteSpace=wrap;html=1;sketch=1;hachureGap=4;jiggle=2;curveFitting=1;fontFamily=Architects Daughter;fontSource=https%3A%2F%2Ffonts.googleapis.com%2Fcss%3Ffamily%3DArchitects%2BDaughter;fontSize=20;" parent="1" vertex="1">
          <mxGeometry x="-150" y="300" width="100" height="40" as="geometry" />
        </mxCell>
        <mxCell id="hcfl6kQtRpzLem7ZkJEF-12" value="Public" style="text;html=1;strokeColor=none;fillColor=none;align=center;verticalAlign=middle;whiteSpace=wrap;rounded=0;fontSize=20;fontFamily=Architects Daughter;" parent="1" vertex="1">
          <mxGeometry x="-130" y="305" width="60" height="30" as="geometry" />
        </mxCell>
        <mxCell id="hcfl6kQtRpzLem7ZkJEF-13" value="" style="rounded=1;whiteSpace=wrap;html=1;sketch=1;hachureGap=4;jiggle=2;curveFitting=1;fontFamily=Architects Daughter;fontSource=https%3A%2F%2Ffonts.googleapis.com%2Fcss%3Ffamily%3DArchitects%2BDaughter;fontSize=20;" parent="1" vertex="1">
          <mxGeometry x="-10" y="300" width="100" height="40" as="geometry" />
        </mxCell>
        <mxCell id="hcfl6kQtRpzLem7ZkJEF-14" value="Private" style="text;html=1;strokeColor=none;fillColor=none;align=center;verticalAlign=middle;whiteSpace=wrap;rounded=0;fontSize=20;fontFamily=Architects Daughter;" parent="1" vertex="1">
          <mxGeometry x="10" y="305" width="60" height="30" as="geometry" />
        </mxCell>
        <mxCell id="hcfl6kQtRpzLem7ZkJEF-16" value="" style="sketch=0;points=[[0,0,0],[0.25,0,0],[0.5,0,0],[0.75,0,0],[1,0,0],[0,1,0],[0.25,1,0],[0.5,1,0],[0.75,1,0],[1,1,0],[0,0.25,0],[0,0.5,0],[0,0.75,0],[1,0.25,0],[1,0.5,0],[1,0.75,0]];outlineConnect=0;fontColor=#232F3E;gradientColor=#F78E04;gradientDirection=north;fillColor=#D05C17;strokeColor=#ffffff;dashed=0;verticalLabelPosition=bottom;verticalAlign=top;align=center;html=1;fontSize=12;fontStyle=0;aspect=fixed;shape=mxgraph.aws4.resourceIcon;resIcon=mxgraph.aws4.local_zones;hachureGap=4;jiggle=2;curveFitting=1;fontFamily=Architects Daughter;fontSource=https%3A%2F%2Ffonts.googleapis.com%2Fcss%3Ffamily%3DArchitects%2BDaughter;" parent="1" vertex="1">
          <mxGeometry x="441" y="54" width="78" height="78" as="geometry" />
        </mxCell>
      </root>
    </mxGraphModel>
  </diagram>
  <diagram id="DisBArs3fTMygxxw30Pl" name="VPC - Over view ">
    <mxGraphModel dx="3390" dy="2353" grid="0" gridSize="10" guides="1" tooltips="1" connect="1" arrows="1" fold="1" page="0" pageScale="1" pageWidth="4681" pageHeight="3300" math="0" shadow="0">
      <root>
        <mxCell id="0" />
        <mxCell id="1" parent="0" />
        <mxCell id="izRRXyb8rAuXV9V97CvB-1" value="VPC" style="outlineConnect=0;html=1;whiteSpace=wrap;fontSize=12;fontStyle=0;shape=mxgraph.aws4.group;grIcon=mxgraph.aws4.group_vpc;fillColor=none;verticalAlign=top;align=left;spacingLeft=30;dashed=1;hachureGap=4;fontFamily=Architects Daughter;fontSource=https%3A%2F%2Ffonts.googleapis.com%2Fcss%3Ffamily%3DArchitects%2BDaughter;labelBackgroundColor=none;rounded=1;strokeWidth=2;" vertex="1" parent="1">
          <mxGeometry x="-214" y="39" width="858" height="570" as="geometry" />
        </mxCell>
        <mxCell id="izRRXyb8rAuXV9V97CvB-2" value="Availability zone" style="outlineConnect=0;html=1;whiteSpace=wrap;fontSize=12;fontStyle=0;shape=mxgraph.aws4.group;grIcon=mxgraph.aws4.group_availability_zone;fillColor=none;verticalAlign=top;align=left;spacingLeft=30;dashed=1;hachureGap=4;fontFamily=Architects Daughter;fontSource=https%3A%2F%2Ffonts.googleapis.com%2Fcss%3Ffamily%3DArchitects%2BDaughter;labelBackgroundColor=none;rounded=1;" vertex="1" parent="1">
          <mxGeometry x="-164" y="92" width="326" height="494" as="geometry" />
        </mxCell>
        <mxCell id="izRRXyb8rAuXV9V97CvB-3" value="Availability zone" style="outlineConnect=0;html=1;whiteSpace=wrap;fontSize=12;fontStyle=0;shape=mxgraph.aws4.group;grIcon=mxgraph.aws4.group_availability_zone;fillColor=none;verticalAlign=top;align=left;spacingLeft=30;dashed=1;hachureGap=4;fontFamily=Architects Daughter;fontSource=https%3A%2F%2Ffonts.googleapis.com%2Fcss%3Ffamily%3DArchitects%2BDaughter;labelBackgroundColor=none;rounded=1;" vertex="1" parent="1">
          <mxGeometry x="258" y="98.5" width="368" height="488" as="geometry" />
        </mxCell>
        <mxCell id="izRRXyb8rAuXV9V97CvB-6" value="Subnet" style="outlineConnect=0;html=1;whiteSpace=wrap;fontSize=12;fontStyle=0;shape=mxgraph.aws4.group;grIcon=mxgraph.aws4.group_subnet;verticalAlign=top;align=left;spacingLeft=30;dashed=0;hachureGap=4;fontFamily=Architects Daughter;fontSource=https%3A%2F%2Ffonts.googleapis.com%2Fcss%3Ffamily%3DArchitects%2BDaughter;labelBackgroundColor=none;rounded=1;fillColor=#d5e8d4;strokeColor=#82b366;" vertex="1" parent="1">
          <mxGeometry x="-129" y="142" width="264" height="104" as="geometry" />
        </mxCell>
        <mxCell id="izRRXyb8rAuXV9V97CvB-7" value="Subnet" style="outlineConnect=0;html=1;whiteSpace=wrap;fontSize=12;fontStyle=0;shape=mxgraph.aws4.group;grIcon=mxgraph.aws4.group_subnet;verticalAlign=top;align=left;spacingLeft=30;dashed=0;hachureGap=4;fontFamily=Architects Daughter;fontSource=https%3A%2F%2Ffonts.googleapis.com%2Fcss%3Ffamily%3DArchitects%2BDaughter;labelBackgroundColor=none;rounded=1;fillColor=#ffe6cc;strokeColor=#d79b00;" vertex="1" parent="1">
          <mxGeometry x="-127" y="279" width="261" height="109" as="geometry" />
        </mxCell>
        <mxCell id="izRRXyb8rAuXV9V97CvB-8" value="Subnet" style="outlineConnect=0;html=1;whiteSpace=wrap;fontSize=12;fontStyle=0;shape=mxgraph.aws4.group;grIcon=mxgraph.aws4.group_subnet;verticalAlign=top;align=left;spacingLeft=30;dashed=0;hachureGap=4;fontFamily=Architects Daughter;fontSource=https%3A%2F%2Ffonts.googleapis.com%2Fcss%3Ffamily%3DArchitects%2BDaughter;labelBackgroundColor=none;rounded=1;fillColor=#dae8fc;strokeColor=#6c8ebf;" vertex="1" parent="1">
          <mxGeometry x="-121" y="424" width="257" height="111" as="geometry" />
        </mxCell>
        <mxCell id="izRRXyb8rAuXV9V97CvB-9" value="Subnet" style="outlineConnect=0;html=1;whiteSpace=wrap;fontSize=12;fontStyle=0;shape=mxgraph.aws4.group;grIcon=mxgraph.aws4.group_subnet;verticalAlign=top;align=left;spacingLeft=30;dashed=0;hachureGap=4;fontFamily=Architects Daughter;fontSource=https%3A%2F%2Ffonts.googleapis.com%2Fcss%3Ffamily%3DArchitects%2BDaughter;labelBackgroundColor=none;rounded=1;fillColor=#d5e8d4;strokeColor=#82b366;" vertex="1" parent="1">
          <mxGeometry x="287" y="135" width="319" height="111" as="geometry" />
        </mxCell>
        <mxCell id="izRRXyb8rAuXV9V97CvB-10" value="Subnet" style="outlineConnect=0;html=1;whiteSpace=wrap;fontSize=12;fontStyle=0;shape=mxgraph.aws4.group;grIcon=mxgraph.aws4.group_subnet;verticalAlign=top;align=left;spacingLeft=30;dashed=0;hachureGap=4;fontFamily=Architects Daughter;fontSource=https%3A%2F%2Ffonts.googleapis.com%2Fcss%3Ffamily%3DArchitects%2BDaughter;labelBackgroundColor=none;rounded=1;fillColor=#ffe6cc;strokeColor=#d79b00;" vertex="1" parent="1">
          <mxGeometry x="285" y="277.5" width="323" height="112" as="geometry" />
        </mxCell>
        <mxCell id="izRRXyb8rAuXV9V97CvB-11" value="Subnet" style="outlineConnect=0;html=1;whiteSpace=wrap;fontSize=12;fontStyle=0;shape=mxgraph.aws4.group;grIcon=mxgraph.aws4.group_subnet;verticalAlign=top;align=left;spacingLeft=30;dashed=0;hachureGap=4;fontFamily=Architects Daughter;fontSource=https%3A%2F%2Ffonts.googleapis.com%2Fcss%3Ffamily%3DArchitects%2BDaughter;labelBackgroundColor=none;rounded=1;fillColor=#dae8fc;strokeColor=#6c8ebf;" vertex="1" parent="1">
          <mxGeometry x="283.5" y="420" width="317" height="110" as="geometry" />
        </mxCell>
        <mxCell id="izRRXyb8rAuXV9V97CvB-12" value="Application Load Balancer" style="outlineConnect=0;fontColor=#232F3E;gradientColor=none;strokeColor=#ffffff;fillColor=#232F3E;dashed=0;verticalLabelPosition=middle;verticalAlign=bottom;align=center;html=1;whiteSpace=wrap;fontSize=10;fontStyle=1;spacing=3;shape=mxgraph.aws4.productIcon;prIcon=mxgraph.aws4.application_load_balancer;hachureGap=4;fontFamily=Architects Daughter;fontSource=https%3A%2F%2Ffonts.googleapis.com%2Fcss%3Ffamily%3DArchitects%2BDaughter;rounded=1;" vertex="1" parent="1">
          <mxGeometry x="171" y="142" width="80" height="110" as="geometry" />
        </mxCell>
        <mxCell id="izRRXyb8rAuXV9V97CvB-13" value="" style="sketch=0;outlineConnect=0;fontColor=#232F3E;gradientColor=none;fillColor=#D45B07;strokeColor=none;dashed=0;verticalLabelPosition=bottom;verticalAlign=top;align=center;html=1;fontSize=12;fontStyle=0;aspect=fixed;pointerEvents=1;shape=mxgraph.aws4.ec2_m1_mac_instance;rounded=1;" vertex="1" parent="1">
          <mxGeometry x="-49" y="330" width="48" height="48" as="geometry" />
        </mxCell>
        <mxCell id="izRRXyb8rAuXV9V97CvB-14" value="" style="sketch=0;outlineConnect=0;fontColor=#232F3E;gradientColor=none;fillColor=#D45B07;strokeColor=none;dashed=0;verticalLabelPosition=bottom;verticalAlign=top;align=center;html=1;fontSize=12;fontStyle=0;aspect=fixed;pointerEvents=1;shape=mxgraph.aws4.ec2_m1_mac_instance;rounded=1;" vertex="1" parent="1">
          <mxGeometry x="365" y="333" width="48" height="48" as="geometry" />
        </mxCell>
        <mxCell id="izRRXyb8rAuXV9V97CvB-15" value="" style="sketch=0;outlineConnect=0;fontColor=#232F3E;gradientColor=none;fillColor=#2E27AD;strokeColor=none;dashed=0;verticalLabelPosition=bottom;verticalAlign=top;align=center;html=1;fontSize=12;fontStyle=0;aspect=fixed;pointerEvents=1;shape=mxgraph.aws4.rds_mysql_instance;rounded=1;" vertex="1" parent="1">
          <mxGeometry x="-31" y="435.5" width="56" height="56" as="geometry" />
        </mxCell>
        <mxCell id="izRRXyb8rAuXV9V97CvB-16" value="" style="sketch=0;outlineConnect=0;fontColor=#232F3E;gradientColor=none;fillColor=#2E27AD;strokeColor=none;dashed=0;verticalLabelPosition=bottom;verticalAlign=top;align=center;html=1;fontSize=12;fontStyle=0;aspect=fixed;pointerEvents=1;shape=mxgraph.aws4.rds_mysql_instance;rounded=1;" vertex="1" parent="1">
          <mxGeometry x="384" y="435.5" width="56" height="56" as="geometry" />
        </mxCell>
        <mxCell id="izRRXyb8rAuXV9V97CvB-17" value="Internet&#xa;gateway" style="sketch=0;outlineConnect=0;fontColor=#232F3E;gradientColor=none;strokeColor=#232F3E;fillColor=#ffffff;dashed=0;verticalLabelPosition=bottom;verticalAlign=top;align=center;html=1;fontSize=12;fontStyle=0;aspect=fixed;shape=mxgraph.aws4.resourceIcon;resIcon=mxgraph.aws4.internet_gateway;rounded=1;" vertex="1" parent="1">
          <mxGeometry x="185.5" y="9" width="60" height="60" as="geometry" />
        </mxCell>
        <mxCell id="izRRXyb8rAuXV9V97CvB-19" value="Region" style="sketch=0;outlineConnect=0;gradientColor=none;html=1;whiteSpace=wrap;fontSize=12;fontStyle=0;shape=mxgraph.aws4.group;grIcon=mxgraph.aws4.group_region;strokeColor=#B6BABF;fillColor=none;verticalAlign=top;align=left;spacingLeft=30;fontColor=#B6BABF;dashed=1;rounded=1;dashPattern=1 2;strokeWidth=5;" vertex="1" parent="1">
          <mxGeometry x="-419.5" y="-8" width="1096" height="656" as="geometry" />
        </mxCell>
        <mxCell id="izRRXyb8rAuXV9V97CvB-20" value="" style="sketch=0;outlineConnect=0;fontColor=#232F3E;gradientColor=none;fillColor=#4D27AA;strokeColor=none;dashed=0;verticalLabelPosition=bottom;verticalAlign=top;align=center;html=1;fontSize=12;fontStyle=0;aspect=fixed;pointerEvents=1;shape=mxgraph.aws4.endpoints;rounded=1;" vertex="1" parent="1">
          <mxGeometry x="-248" y="452" width="78" height="78" as="geometry" />
        </mxCell>
        <mxCell id="izRRXyb8rAuXV9V97CvB-21" value="" style="sketch=0;outlineConnect=0;fontColor=#232F3E;gradientColor=none;fillColor=#4D27AA;strokeColor=none;dashed=0;verticalLabelPosition=bottom;verticalAlign=top;align=center;html=1;fontSize=12;fontStyle=0;aspect=fixed;pointerEvents=1;shape=mxgraph.aws4.endpoints;rounded=1;" vertex="1" parent="1">
          <mxGeometry x="-251" y="211" width="78" height="78" as="geometry" />
        </mxCell>
        <mxCell id="izRRXyb8rAuXV9V97CvB-22" value="" style="sketch=0;outlineConnect=0;fontColor=#232F3E;gradientColor=none;fillColor=#4D27AA;strokeColor=none;dashed=0;verticalLabelPosition=bottom;verticalAlign=top;align=center;html=1;fontSize=12;fontStyle=0;aspect=fixed;pointerEvents=1;shape=mxgraph.aws4.flow_logs;rounded=1;" vertex="1" parent="1">
          <mxGeometry x="562" width="78" height="78" as="geometry" />
        </mxCell>
        <mxCell id="izRRXyb8rAuXV9V97CvB-23" value="" style="sketch=0;points=[[0,0,0],[0.25,0,0],[0.5,0,0],[0.75,0,0],[1,0,0],[0,1,0],[0.25,1,0],[0.5,1,0],[0.75,1,0],[1,1,0],[0,0.25,0],[0,0.5,0],[0,0.75,0],[1,0.25,0],[1,0.5,0],[1,0.75,0]];outlineConnect=0;fontColor=#232F3E;gradientColor=#60A337;gradientDirection=north;fillColor=#277116;strokeColor=#ffffff;dashed=0;verticalLabelPosition=bottom;verticalAlign=top;align=center;html=1;fontSize=12;fontStyle=0;aspect=fixed;shape=mxgraph.aws4.resourceIcon;resIcon=mxgraph.aws4.s3;rounded=1;" vertex="1" parent="1">
          <mxGeometry x="-396" y="413.5" width="78" height="78" as="geometry" />
        </mxCell>
        <mxCell id="izRRXyb8rAuXV9V97CvB-24" value="" style="outlineConnect=0;dashed=0;verticalLabelPosition=bottom;verticalAlign=top;align=center;html=1;shape=mxgraph.aws3.dynamo_db;fillColor=#2E73B8;gradientColor=none;rounded=1;fontSize=16;" vertex="1" parent="1">
          <mxGeometry x="-400" y="511" width="72" height="81" as="geometry" />
        </mxCell>
        <mxCell id="izRRXyb8rAuXV9V97CvB-25" value="" style="sketch=0;points=[[0,0,0],[0.25,0,0],[0.5,0,0],[0.75,0,0],[1,0,0],[0,1,0],[0.25,1,0],[0.5,1,0],[0.75,1,0],[1,1,0],[0,0.25,0],[0,0.5,0],[0,0.75,0],[1,0.25,0],[1,0.5,0],[1,0.75,0]];outlineConnect=0;fontColor=#232F3E;gradientColor=#FF4F8B;gradientDirection=north;fillColor=#BC1356;strokeColor=#ffffff;dashed=0;verticalLabelPosition=bottom;verticalAlign=top;align=center;html=1;fontSize=12;fontStyle=0;aspect=fixed;shape=mxgraph.aws4.resourceIcon;resIcon=mxgraph.aws4.sqs;rounded=1;" vertex="1" parent="1">
          <mxGeometry x="-403" y="123" width="78" height="78" as="geometry" />
        </mxCell>
        <mxCell id="izRRXyb8rAuXV9V97CvB-26" value="" style="sketch=0;points=[[0,0,0],[0.25,0,0],[0.5,0,0],[0.75,0,0],[1,0,0],[0,1,0],[0.25,1,0],[0.5,1,0],[0.75,1,0],[1,1,0],[0,0.25,0],[0,0.5,0],[0,0.75,0],[1,0.25,0],[1,0.5,0],[1,0.75,0]];outlineConnect=0;fontColor=#232F3E;gradientColor=#FF4F8B;gradientDirection=north;fillColor=#BC1356;strokeColor=#ffffff;dashed=0;verticalLabelPosition=bottom;verticalAlign=top;align=center;html=1;fontSize=12;fontStyle=0;aspect=fixed;shape=mxgraph.aws4.resourceIcon;resIcon=mxgraph.aws4.sns;rounded=1;" vertex="1" parent="1">
          <mxGeometry x="-403" y="215" width="78" height="78" as="geometry" />
        </mxCell>
        <mxCell id="izRRXyb8rAuXV9V97CvB-27" value="" style="outlineConnect=0;dashed=0;verticalLabelPosition=bottom;verticalAlign=top;align=center;html=1;shape=mxgraph.aws3.lambda_function;fillColor=#F58534;gradientColor=none;rounded=1;fontSize=16;" vertex="1" parent="1">
          <mxGeometry x="-398.5" y="33" width="69" height="72" as="geometry" />
        </mxCell>
        <mxCell id="izRRXyb8rAuXV9V97CvB-38" style="edgeStyle=none;curved=1;rounded=1;orthogonalLoop=1;jettySize=auto;html=1;exitX=1;exitY=0.5;exitDx=0;exitDy=0;exitPerimeter=0;entryX=0;entryY=0.5;entryDx=0;entryDy=0;fontSize=12;startSize=8;endSize=8;" edge="1" parent="1" source="izRRXyb8rAuXV9V97CvB-28" target="izRRXyb8rAuXV9V97CvB-29">
          <mxGeometry relative="1" as="geometry" />
        </mxCell>
        <mxCell id="izRRXyb8rAuXV9V97CvB-39" style="edgeStyle=none;curved=1;rounded=1;orthogonalLoop=1;jettySize=auto;html=1;fontSize=12;startSize=8;endSize=8;exitX=0;exitY=0.5;exitDx=0;exitDy=0;exitPerimeter=0;" edge="1" parent="1" source="izRRXyb8rAuXV9V97CvB-28">
          <mxGeometry relative="1" as="geometry">
            <mxPoint x="756" y="244.32999999999998" as="sourcePoint" />
            <mxPoint x="644" y="244.32999999999976" as="targetPoint" />
          </mxGeometry>
        </mxCell>
        <mxCell id="izRRXyb8rAuXV9V97CvB-28" value="" style="outlineConnect=0;dashed=0;verticalLabelPosition=bottom;verticalAlign=top;align=center;html=1;shape=mxgraph.aws3.vpc_peering;fillColor=#F58534;gradientColor=none;rounded=1;fontSize=16;" vertex="1" parent="1">
          <mxGeometry x="738" y="207" width="69" height="72" as="geometry" />
        </mxCell>
        <mxCell id="izRRXyb8rAuXV9V97CvB-29" value="VPC" style="points=[[0,0],[0.25,0],[0.5,0],[0.75,0],[1,0],[1,0.25],[1,0.5],[1,0.75],[1,1],[0.75,1],[0.5,1],[0.25,1],[0,1],[0,0.75],[0,0.5],[0,0.25]];outlineConnect=0;gradientColor=none;html=1;whiteSpace=wrap;fontSize=12;fontStyle=0;container=1;pointerEvents=0;collapsible=0;recursiveResize=0;shape=mxgraph.aws4.group;grIcon=mxgraph.aws4.group_vpc;strokeColor=#248814;fillColor=none;verticalAlign=top;align=left;spacingLeft=30;fontColor=#AAB7B8;dashed=0;rounded=1;" vertex="1" parent="1">
          <mxGeometry x="901" y="169.25" width="251" height="144.75" as="geometry" />
        </mxCell>
        <mxCell id="izRRXyb8rAuXV9V97CvB-78" value="" style="outlineConnect=0;dashed=0;verticalLabelPosition=bottom;verticalAlign=top;align=center;html=1;shape=mxgraph.aws3.ec2;fillColor=#F58534;gradientColor=none;rounded=1;fontSize=16;" vertex="1" parent="izRRXyb8rAuXV9V97CvB-29">
          <mxGeometry x="57" y="25.879999999999995" width="76.5" height="93" as="geometry" />
        </mxCell>
        <mxCell id="izRRXyb8rAuXV9V97CvB-31" value="VPC" style="points=[[0,0],[0.25,0],[0.5,0],[0.75,0],[1,0],[1,0.25],[1,0.5],[1,0.75],[1,1],[0.75,1],[0.5,1],[0.25,1],[0,1],[0,0.75],[0,0.5],[0,0.25]];outlineConnect=0;gradientColor=none;html=1;whiteSpace=wrap;fontSize=12;fontStyle=0;container=1;pointerEvents=0;collapsible=0;recursiveResize=0;shape=mxgraph.aws4.group;grIcon=mxgraph.aws4.group_vpc;strokeColor=#248814;fillColor=none;verticalAlign=top;align=left;spacingLeft=30;fontColor=#AAB7B8;dashed=0;rounded=1;" vertex="1" parent="1">
          <mxGeometry x="898" y="-37.25" width="259" height="147.5" as="geometry" />
        </mxCell>
        <mxCell id="izRRXyb8rAuXV9V97CvB-32" value="VPC" style="points=[[0,0],[0.25,0],[0.5,0],[0.75,0],[1,0],[1,0.25],[1,0.5],[1,0.75],[1,1],[0.75,1],[0.5,1],[0.25,1],[0,1],[0,0.75],[0,0.5],[0,0.25]];outlineConnect=0;gradientColor=none;html=1;whiteSpace=wrap;fontSize=12;fontStyle=0;container=1;pointerEvents=0;collapsible=0;recursiveResize=0;shape=mxgraph.aws4.group;grIcon=mxgraph.aws4.group_vpc;strokeColor=#248814;fillColor=none;verticalAlign=top;align=left;spacingLeft=30;fontColor=#AAB7B8;dashed=0;rounded=1;" vertex="1" parent="1">
          <mxGeometry x="631" y="-190" width="259" height="147.5" as="geometry" />
        </mxCell>
        <mxCell id="izRRXyb8rAuXV9V97CvB-36" style="edgeStyle=none;curved=1;rounded=1;orthogonalLoop=1;jettySize=auto;html=1;exitX=0.5;exitY=0;exitDx=0;exitDy=0;exitPerimeter=0;entryX=0.5;entryY=1;entryDx=0;entryDy=0;fontSize=12;startSize=8;endSize=8;" edge="1" parent="1" source="izRRXyb8rAuXV9V97CvB-33" target="izRRXyb8rAuXV9V97CvB-32">
          <mxGeometry relative="1" as="geometry" />
        </mxCell>
        <mxCell id="izRRXyb8rAuXV9V97CvB-37" style="edgeStyle=none;curved=1;rounded=1;orthogonalLoop=1;jettySize=auto;html=1;exitX=1;exitY=0.5;exitDx=0;exitDy=0;exitPerimeter=0;fontSize=12;startSize=8;endSize=8;" edge="1" parent="1" source="izRRXyb8rAuXV9V97CvB-33" target="izRRXyb8rAuXV9V97CvB-31">
          <mxGeometry relative="1" as="geometry" />
        </mxCell>
        <mxCell id="izRRXyb8rAuXV9V97CvB-40" style="edgeStyle=none;curved=1;rounded=1;orthogonalLoop=1;jettySize=auto;html=1;exitX=1;exitY=1;exitDx=0;exitDy=0;exitPerimeter=0;entryX=0;entryY=0;entryDx=0;entryDy=0;fontSize=12;startSize=8;endSize=8;" edge="1" parent="1" source="izRRXyb8rAuXV9V97CvB-33" target="izRRXyb8rAuXV9V97CvB-29">
          <mxGeometry relative="1" as="geometry" />
        </mxCell>
        <mxCell id="izRRXyb8rAuXV9V97CvB-41" style="edgeStyle=none;curved=1;rounded=1;orthogonalLoop=1;jettySize=auto;html=1;exitX=0;exitY=1;exitDx=0;exitDy=0;exitPerimeter=0;fontSize=12;startSize=8;endSize=8;" edge="1" parent="1" source="izRRXyb8rAuXV9V97CvB-33" target="izRRXyb8rAuXV9V97CvB-1">
          <mxGeometry relative="1" as="geometry" />
        </mxCell>
        <mxCell id="izRRXyb8rAuXV9V97CvB-33" value="" style="sketch=0;points=[[0,0,0],[0.25,0,0],[0.5,0,0],[0.75,0,0],[1,0,0],[0,1,0],[0.25,1,0],[0.5,1,0],[0.75,1,0],[1,1,0],[0,0.25,0],[0,0.5,0],[0,0.75,0],[1,0.25,0],[1,0.5,0],[1,0.75,0]];outlineConnect=0;fontColor=#232F3E;gradientColor=#945DF2;gradientDirection=north;fillColor=#5A30B5;strokeColor=#ffffff;dashed=0;verticalLabelPosition=bottom;verticalAlign=top;align=center;html=1;fontSize=12;fontStyle=0;aspect=fixed;shape=mxgraph.aws4.resourceIcon;resIcon=mxgraph.aws4.transit_gateway;rounded=1;" vertex="1" parent="1">
          <mxGeometry x="719" y="-5" width="86" height="86" as="geometry" />
        </mxCell>
        <mxCell id="izRRXyb8rAuXV9V97CvB-42" value="VPC" style="points=[[0,0],[0.25,0],[0.5,0],[0.75,0],[1,0],[1,0.25],[1,0.5],[1,0.75],[1,1],[0.75,1],[0.5,1],[0.25,1],[0,1],[0,0.75],[0,0.5],[0,0.25]];outlineConnect=0;gradientColor=none;html=1;whiteSpace=wrap;fontSize=12;fontStyle=0;container=1;pointerEvents=0;collapsible=0;recursiveResize=0;shape=mxgraph.aws4.group;grIcon=mxgraph.aws4.group_vpc;strokeColor=#248814;fillColor=none;verticalAlign=top;align=left;spacingLeft=30;fontColor=#AAB7B8;dashed=0;rounded=1;" vertex="1" parent="1">
          <mxGeometry x="901" y="456" width="259" height="147.5" as="geometry" />
        </mxCell>
        <mxCell id="izRRXyb8rAuXV9V97CvB-44" style="edgeStyle=none;curved=1;rounded=1;orthogonalLoop=1;jettySize=auto;html=1;exitX=0.5;exitY=1;exitDx=0;exitDy=0;exitPerimeter=0;fontSize=12;startSize=8;endSize=8;" edge="1" parent="1" source="izRRXyb8rAuXV9V97CvB-43" target="izRRXyb8rAuXV9V97CvB-42">
          <mxGeometry relative="1" as="geometry" />
        </mxCell>
        <mxCell id="izRRXyb8rAuXV9V97CvB-46" style="edgeStyle=none;curved=1;rounded=1;orthogonalLoop=1;jettySize=auto;html=1;exitX=0.5;exitY=0;exitDx=0;exitDy=0;exitPerimeter=0;entryX=0.5;entryY=1;entryDx=0;entryDy=0;fontSize=12;startSize=8;endSize=8;" edge="1" parent="1" source="izRRXyb8rAuXV9V97CvB-43" target="izRRXyb8rAuXV9V97CvB-29">
          <mxGeometry relative="1" as="geometry" />
        </mxCell>
        <mxCell id="izRRXyb8rAuXV9V97CvB-43" value="" style="outlineConnect=0;dashed=0;verticalLabelPosition=bottom;verticalAlign=top;align=center;html=1;shape=mxgraph.aws3.vpc_peering;fillColor=#F58534;gradientColor=none;rounded=1;fontSize=16;" vertex="1" parent="1">
          <mxGeometry x="992" y="350" width="69" height="63.5" as="geometry" />
        </mxCell>
        <mxCell id="izRRXyb8rAuXV9V97CvB-45" style="edgeStyle=none;curved=1;rounded=1;orthogonalLoop=1;jettySize=auto;html=1;exitX=1;exitY=1;exitDx=0;exitDy=0;fontSize=12;startSize=8;endSize=8;" edge="1" parent="1" source="izRRXyb8rAuXV9V97CvB-29" target="izRRXyb8rAuXV9V97CvB-29">
          <mxGeometry relative="1" as="geometry" />
        </mxCell>
        <mxCell id="izRRXyb8rAuXV9V97CvB-47" value="" style="sketch=0;outlineConnect=0;fontColor=#232F3E;gradientColor=none;fillColor=#4D27AA;strokeColor=none;dashed=0;verticalLabelPosition=bottom;verticalAlign=top;align=center;html=1;fontSize=12;fontStyle=0;aspect=fixed;pointerEvents=1;shape=mxgraph.aws4.vpn_gateway;rounded=1;" vertex="1" parent="1">
          <mxGeometry x="176.5" y="565" width="78" height="78" as="geometry" />
        </mxCell>
        <mxCell id="izRRXyb8rAuXV9V97CvB-48" value="" style="html=1;strokeWidth=1;shadow=0;dashed=0;shape=mxgraph.ios7.misc.vpn;fillColor=#007AFF;strokeColor=none;buttonText=;strokeColor2=#222222;fontColor=#222222;fontSize=8;verticalLabelPosition=bottom;verticalAlign=top;align=center;sketch=0;rounded=1;" vertex="1" parent="1">
          <mxGeometry x="53" y="696" width="78" height="58" as="geometry" />
        </mxCell>
        <mxCell id="izRRXyb8rAuXV9V97CvB-49" value="" style="sketch=0;points=[[0,0,0],[0.25,0,0],[0.5,0,0],[0.75,0,0],[1,0,0],[0,1,0],[0.25,1,0],[0.5,1,0],[0.75,1,0],[1,1,0],[0,0.25,0],[0,0.5,0],[0,0.75,0],[1,0.25,0],[1,0.5,0],[1,0.75,0]];outlineConnect=0;fontColor=#232F3E;gradientColor=#945DF2;gradientDirection=north;fillColor=#5A30B5;strokeColor=#ffffff;dashed=0;verticalLabelPosition=bottom;verticalAlign=top;align=center;html=1;fontSize=12;fontStyle=0;aspect=fixed;shape=mxgraph.aws4.resourceIcon;resIcon=mxgraph.aws4.direct_connect;rounded=1;" vertex="1" parent="1">
          <mxGeometry x="332" y="683" width="71" height="71" as="geometry" />
        </mxCell>
        <mxCell id="izRRXyb8rAuXV9V97CvB-50" value="" style="sketch=0;outlineConnect=0;fontColor=#232F3E;gradientColor=none;fillColor=#232F3D;strokeColor=none;dashed=0;verticalLabelPosition=bottom;verticalAlign=top;align=center;html=1;fontSize=12;fontStyle=0;aspect=fixed;pointerEvents=1;shape=mxgraph.aws4.corporate_data_center;rounded=1;" vertex="1" parent="1">
          <mxGeometry x="-129.00000000000003" y="810" width="116.19" height="171" as="geometry" />
        </mxCell>
        <mxCell id="izRRXyb8rAuXV9V97CvB-51" value="" style="sketch=0;outlineConnect=0;fontColor=#232F3E;gradientColor=none;fillColor=#232F3D;strokeColor=none;dashed=0;verticalLabelPosition=bottom;verticalAlign=top;align=center;html=1;fontSize=12;fontStyle=0;aspect=fixed;pointerEvents=1;shape=mxgraph.aws4.corporate_data_center;rounded=1;" vertex="1" parent="1">
          <mxGeometry x="469.99999999999994" y="810" width="116.19" height="171" as="geometry" />
        </mxCell>
        <mxCell id="izRRXyb8rAuXV9V97CvB-53" value="" style="endArrow=none;dashed=1;html=1;dashPattern=1 3;strokeWidth=2;rounded=1;fontSize=12;startSize=8;endSize=8;curved=1;entryX=0;entryY=0.931;entryDx=0;entryDy=0;entryPerimeter=0;" edge="1" parent="1" target="izRRXyb8rAuXV9V97CvB-48">
          <mxGeometry width="50" height="50" relative="1" as="geometry">
            <mxPoint x="-41.81" y="828" as="sourcePoint" />
            <mxPoint x="8.189999999999998" y="778" as="targetPoint" />
          </mxGeometry>
        </mxCell>
        <mxCell id="izRRXyb8rAuXV9V97CvB-54" value="" style="endArrow=none;dashed=1;html=1;dashPattern=1 3;strokeWidth=2;rounded=1;fontSize=12;startSize=8;endSize=8;curved=1;entryX=0;entryY=0.931;entryDx=0;entryDy=0;entryPerimeter=0;" edge="1" parent="1">
          <mxGeometry width="50" height="50" relative="1" as="geometry">
            <mxPoint x="106" y="708" as="sourcePoint" />
            <mxPoint x="200.81" y="630" as="targetPoint" />
          </mxGeometry>
        </mxCell>
        <mxCell id="izRRXyb8rAuXV9V97CvB-56" value="" style="endArrow=classic;startArrow=classic;html=1;rounded=1;fontSize=12;startSize=8;endSize=8;curved=1;entryX=0;entryY=0;entryDx=0;entryDy=0;entryPerimeter=0;" edge="1" parent="1" source="izRRXyb8rAuXV9V97CvB-47" target="izRRXyb8rAuXV9V97CvB-49">
          <mxGeometry width="50" height="50" relative="1" as="geometry">
            <mxPoint x="225" y="686" as="sourcePoint" />
            <mxPoint x="275" y="636" as="targetPoint" />
          </mxGeometry>
        </mxCell>
        <mxCell id="izRRXyb8rAuXV9V97CvB-59" value="" style="endArrow=classic;startArrow=classic;html=1;rounded=1;fontSize=12;startSize=8;endSize=8;curved=1;" edge="1" parent="1">
          <mxGeometry width="50" height="50" relative="1" as="geometry">
            <mxPoint x="404" y="757" as="sourcePoint" />
            <mxPoint x="467" y="807" as="targetPoint" />
          </mxGeometry>
        </mxCell>
        <mxCell id="izRRXyb8rAuXV9V97CvB-64" value="VPC" style="sketch=0;outlineConnect=0;gradientColor=none;html=1;whiteSpace=wrap;fontSize=12;fontStyle=0;shape=mxgraph.aws4.group;grIcon=mxgraph.aws4.group_vpc;strokeColor=#B6BABF;fillColor=none;verticalAlign=top;align=left;spacingLeft=30;fontColor=#B6BABF;dashed=0;rounded=1;" vertex="1" parent="1">
          <mxGeometry x="-414" y="-278" width="304" height="132" as="geometry" />
        </mxCell>
        <mxCell id="izRRXyb8rAuXV9V97CvB-65" value="" style="outlineConnect=0;dashed=0;verticalLabelPosition=bottom;verticalAlign=top;align=center;html=1;shape=mxgraph.aws3.ec2;fillColor=#F58534;gradientColor=none;rounded=1;fontSize=16;" vertex="1" parent="1">
          <mxGeometry x="-386" y="-245" width="76.5" height="93" as="geometry" />
        </mxCell>
        <mxCell id="izRRXyb8rAuXV9V97CvB-66" value="" style="sketch=0;outlineConnect=0;fontColor=#232F3E;gradientColor=none;fillColor=#4D27AA;strokeColor=none;dashed=0;verticalLabelPosition=bottom;verticalAlign=top;align=center;html=1;fontSize=12;fontStyle=0;aspect=fixed;pointerEvents=1;shape=mxgraph.aws4.network_load_balancer;rounded=1;" vertex="1" parent="1">
          <mxGeometry x="-279.5" y="-266" width="106.5" height="106.5" as="geometry" />
        </mxCell>
        <mxCell id="izRRXyb8rAuXV9V97CvB-71" value="" style="endArrow=none;dashed=1;html=1;rounded=1;fontSize=12;startSize=8;endSize=8;curved=1;" edge="1" parent="1" source="izRRXyb8rAuXV9V97CvB-21" target="izRRXyb8rAuXV9V97CvB-64">
          <mxGeometry width="50" height="50" relative="1" as="geometry">
            <mxPoint x="-377" y="-29" as="sourcePoint" />
            <mxPoint x="-281" y="-120" as="targetPoint" />
          </mxGeometry>
        </mxCell>
        <mxCell id="izRRXyb8rAuXV9V97CvB-72" value="" style="endArrow=none;dashed=1;html=1;rounded=1;fontSize=12;startSize=8;endSize=8;curved=1;" edge="1" parent="1" target="izRRXyb8rAuXV9V97CvB-21">
          <mxGeometry width="50" height="50" relative="1" as="geometry">
            <mxPoint x="-329" y="79" as="sourcePoint" />
            <mxPoint x="-279" y="29" as="targetPoint" />
          </mxGeometry>
        </mxCell>
        <mxCell id="izRRXyb8rAuXV9V97CvB-74" value="" style="endArrow=none;dashed=1;html=1;dashPattern=1 3;strokeWidth=2;rounded=1;fontSize=12;startSize=8;endSize=8;curved=1;" edge="1" parent="1">
          <mxGeometry width="50" height="50" relative="1" as="geometry">
            <mxPoint x="-322" y="195" as="sourcePoint" />
            <mxPoint x="-251" y="248" as="targetPoint" />
          </mxGeometry>
        </mxCell>
        <mxCell id="izRRXyb8rAuXV9V97CvB-75" value="" style="endArrow=none;dashed=1;html=1;dashPattern=1 3;strokeWidth=2;rounded=1;fontSize=12;startSize=8;endSize=8;curved=1;" edge="1" parent="1">
          <mxGeometry width="50" height="50" relative="1" as="geometry">
            <mxPoint x="-325" y="296" as="sourcePoint" />
            <mxPoint x="-254" y="253" as="targetPoint" />
          </mxGeometry>
        </mxCell>
        <mxCell id="izRRXyb8rAuXV9V97CvB-76" value="" style="endArrow=none;dashed=1;html=1;dashPattern=1 3;strokeWidth=2;rounded=1;fontSize=12;startSize=8;endSize=8;curved=1;" edge="1" parent="1">
          <mxGeometry width="50" height="50" relative="1" as="geometry">
            <mxPoint x="-309.5" y="440" as="sourcePoint" />
            <mxPoint x="-253.5" y="475.5" as="targetPoint" />
          </mxGeometry>
        </mxCell>
        <mxCell id="izRRXyb8rAuXV9V97CvB-77" value="" style="endArrow=none;dashed=1;html=1;rounded=1;fontSize=12;startSize=8;endSize=8;curved=1;entryX=-0.013;entryY=0.756;entryDx=0;entryDy=0;entryPerimeter=0;" edge="1" parent="1" target="izRRXyb8rAuXV9V97CvB-20">
          <mxGeometry width="50" height="50" relative="1" as="geometry">
            <mxPoint x="-318" y="561" as="sourcePoint" />
            <mxPoint x="-268" y="511" as="targetPoint" />
          </mxGeometry>
        </mxCell>
        <mxCell id="izRRXyb8rAuXV9V97CvB-79" value="" style="outlineConnect=0;dashed=0;verticalLabelPosition=bottom;verticalAlign=top;align=center;html=1;shape=mxgraph.aws3.cloudfront;fillColor=#F58536;gradientColor=none;rounded=1;fontSize=16;" vertex="1" parent="1">
          <mxGeometry x="359" y="-371" width="76.5" height="93" as="geometry" />
        </mxCell>
        <mxCell id="izRRXyb8rAuXV9V97CvB-80" value="" style="html=1;verticalLabelPosition=bottom;align=center;labelBackgroundColor=#ffffff;verticalAlign=top;strokeWidth=2;strokeColor=#0080F0;shadow=0;dashed=0;shape=mxgraph.ios7.icons.user;rounded=1;fontSize=16;" vertex="1" parent="1">
          <mxGeometry x="159" y="-484" width="92" height="62" as="geometry" />
        </mxCell>
        <mxCell id="izRRXyb8rAuXV9V97CvB-81" value="" style="sketch=0;outlineConnect=0;fontColor=#232F3E;gradientColor=none;fillColor=#4D27AA;strokeColor=none;dashed=0;verticalLabelPosition=bottom;verticalAlign=top;align=center;html=1;fontSize=12;fontStyle=0;aspect=fixed;pointerEvents=1;shape=mxgraph.aws4.route_53_resolver_dns_firewall;rounded=1;" vertex="1" parent="1">
          <mxGeometry x="39" y="-251.75" width="78" height="78" as="geometry" />
        </mxCell>
        <mxCell id="izRRXyb8rAuXV9V97CvB-83" value="" style="endArrow=classic;startArrow=classic;html=1;rounded=1;fontSize=12;startSize=8;endSize=8;curved=1;" edge="1" parent="1">
          <mxGeometry width="50" height="50" relative="1" as="geometry">
            <mxPoint x="76" y="-56" as="sourcePoint" />
            <mxPoint x="76" y="-138" as="targetPoint" />
          </mxGeometry>
        </mxCell>
        <mxCell id="izRRXyb8rAuXV9V97CvB-84" value="" style="html=1;verticalLabelPosition=bottom;align=center;labelBackgroundColor=#ffffff;verticalAlign=top;strokeWidth=2;strokeColor=#0080F0;shadow=0;dashed=0;shape=mxgraph.ios7.icons.globe;rounded=1;fontSize=16;" vertex="1" parent="1">
          <mxGeometry x="351.5" y="-166" width="84" height="56" as="geometry" />
        </mxCell>
        <mxCell id="izRRXyb8rAuXV9V97CvB-85" value="" style="endArrow=classic;startArrow=classic;html=1;rounded=1;fontSize=12;startSize=8;endSize=8;curved=1;" edge="1" parent="1">
          <mxGeometry width="50" height="50" relative="1" as="geometry">
            <mxPoint x="396.25" y="-177" as="sourcePoint" />
            <mxPoint x="396.25" y="-259" as="targetPoint" />
          </mxGeometry>
        </mxCell>
        <mxCell id="izRRXyb8rAuXV9V97CvB-86" value="" style="endArrow=classic;startArrow=classic;html=1;rounded=1;fontSize=12;startSize=8;endSize=8;curved=1;" edge="1" parent="1">
          <mxGeometry width="50" height="50" relative="1" as="geometry">
            <mxPoint x="400" y="-10" as="sourcePoint" />
            <mxPoint x="400" y="-92" as="targetPoint" />
          </mxGeometry>
        </mxCell>
        <mxCell id="izRRXyb8rAuXV9V97CvB-87" value="" style="endArrow=classic;startArrow=classic;html=1;rounded=1;fontSize=12;startSize=8;endSize=8;curved=1;" edge="1" parent="1">
          <mxGeometry width="50" height="50" relative="1" as="geometry">
            <mxPoint x="73" y="-276" as="sourcePoint" />
            <mxPoint x="156" y="-422" as="targetPoint" />
            <Array as="points">
              <mxPoint x="38" y="-381" />
            </Array>
          </mxGeometry>
        </mxCell>
        <mxCell id="izRRXyb8rAuXV9V97CvB-88" value="" style="endArrow=classic;startArrow=classic;html=1;rounded=1;fontSize=12;startSize=8;endSize=8;curved=1;" edge="1" parent="1">
          <mxGeometry width="50" height="50" relative="1" as="geometry">
            <mxPoint x="278" y="-464" as="sourcePoint" />
            <mxPoint x="396" y="-394" as="targetPoint" />
            <Array as="points">
              <mxPoint x="478" y="-523" />
            </Array>
          </mxGeometry>
        </mxCell>
        <mxCell id="izRRXyb8rAuXV9V97CvB-89" value="Hosted Services in another Client VPC" style="text;html=1;strokeColor=none;fillColor=none;align=center;verticalAlign=middle;whiteSpace=wrap;rounded=0;fontSize=16;" vertex="1" parent="1">
          <mxGeometry x="-422" y="-363" width="320" height="60" as="geometry" />
        </mxCell>
        <mxCell id="izRRXyb8rAuXV9V97CvB-90" value="User" style="text;html=1;strokeColor=none;fillColor=none;align=center;verticalAlign=middle;whiteSpace=wrap;rounded=0;fontSize=16;" vertex="1" parent="1">
          <mxGeometry x="153" y="-534" width="60" height="30" as="geometry" />
        </mxCell>
        <mxCell id="izRRXyb8rAuXV9V97CvB-91" value="Cloud Frount" style="text;html=1;strokeColor=none;fillColor=none;align=center;verticalAlign=middle;whiteSpace=wrap;rounded=0;fontSize=16;" vertex="1" parent="1">
          <mxGeometry x="475" y="-348" width="150" height="48" as="geometry" />
        </mxCell>
        <mxCell id="izRRXyb8rAuXV9V97CvB-94" value="Network Latency" style="text;html=1;strokeColor=none;fillColor=none;align=center;verticalAlign=middle;whiteSpace=wrap;rounded=0;fontSize=16;" vertex="1" parent="1">
          <mxGeometry x="299" y="-538.5" width="239" height="39" as="geometry" />
        </mxCell>
        <mxCell id="izRRXyb8rAuXV9V97CvB-96" value="Text" style="text;html=1;strokeColor=none;fillColor=none;align=center;verticalAlign=middle;whiteSpace=wrap;rounded=0;fontSize=16;" vertex="1" parent="1">
          <mxGeometry x="-279.5" y="-621" width="60" height="30" as="geometry" />
        </mxCell>
        <mxCell id="izRRXyb8rAuXV9V97CvB-97" value="latency is more" style="text;html=1;strokeColor=none;fillColor=none;align=center;verticalAlign=middle;whiteSpace=wrap;rounded=0;fontSize=16;" vertex="1" parent="1">
          <mxGeometry x="57" y="-371" width="143" height="59" as="geometry" />
        </mxCell>
        <mxCell id="izRRXyb8rAuXV9V97CvB-99" value="Edge locations for Netflix, Prime" style="text;html=1;strokeColor=none;fillColor=none;align=center;verticalAlign=middle;whiteSpace=wrap;rounded=0;fontSize=16;" vertex="1" parent="1">
          <mxGeometry x="345" y="-601" width="140" height="67" as="geometry" />
        </mxCell>
        <mxCell id="izRRXyb8rAuXV9V97CvB-102" value="NLB" style="text;html=1;strokeColor=none;fillColor=none;align=center;verticalAlign=middle;whiteSpace=wrap;rounded=0;fontSize=16;" vertex="1" parent="1">
          <mxGeometry x="-181" y="-182" width="44" height="30" as="geometry" />
        </mxCell>
        <mxCell id="izRRXyb8rAuXV9V97CvB-104" value="EC2" style="text;html=1;strokeColor=none;fillColor=none;align=center;verticalAlign=middle;whiteSpace=wrap;rounded=0;fontSize=16;" vertex="1" parent="1">
          <mxGeometry x="-353.5" y="-217" width="44" height="30" as="geometry" />
        </mxCell>
        <mxCell id="izRRXyb8rAuXV9V97CvB-105" value="Route 53" style="text;html=1;strokeColor=none;fillColor=none;align=center;verticalAlign=middle;whiteSpace=wrap;rounded=0;fontSize=16;" vertex="1" parent="1">
          <mxGeometry x="39" y="-163" width="70" height="17" as="geometry" />
        </mxCell>
        <mxCell id="izRRXyb8rAuXV9V97CvB-106" value="Internet" style="text;html=1;strokeColor=none;fillColor=none;align=center;verticalAlign=middle;whiteSpace=wrap;rounded=0;fontSize=16;" vertex="1" parent="1">
          <mxGeometry x="362.25" y="-107" width="70" height="17" as="geometry" />
        </mxCell>
        <mxCell id="izRRXyb8rAuXV9V97CvB-107" value="Public" style="text;html=1;strokeColor=none;fillColor=none;align=center;verticalAlign=middle;whiteSpace=wrap;rounded=0;fontSize=16;" vertex="1" parent="1">
          <mxGeometry x="385" y="198" width="60" height="30" as="geometry" />
        </mxCell>
        <mxCell id="izRRXyb8rAuXV9V97CvB-108" value="Private" style="text;html=1;strokeColor=none;fillColor=none;align=center;verticalAlign=middle;whiteSpace=wrap;rounded=0;fontSize=16;" vertex="1" parent="1">
          <mxGeometry x="71" y="355" width="60" height="30" as="geometry" />
        </mxCell>
        <mxCell id="izRRXyb8rAuXV9V97CvB-109" value="Direct Connect" style="text;html=1;strokeColor=none;fillColor=none;align=center;verticalAlign=middle;whiteSpace=wrap;rounded=0;fontSize=16;" vertex="1" parent="1">
          <mxGeometry x="262" y="767" width="141" height="30" as="geometry" />
        </mxCell>
        <mxCell id="izRRXyb8rAuXV9V97CvB-110" value="Public" style="text;html=1;strokeColor=none;fillColor=none;align=center;verticalAlign=middle;whiteSpace=wrap;rounded=0;fontSize=16;" vertex="1" parent="1">
          <mxGeometry x="-57" y="198" width="60" height="30" as="geometry" />
        </mxCell>
        <mxCell id="izRRXyb8rAuXV9V97CvB-113" value="Private" style="text;html=1;strokeColor=none;fillColor=none;align=center;verticalAlign=middle;whiteSpace=wrap;rounded=0;fontSize=16;" vertex="1" parent="1">
          <mxGeometry x="543" y="351" width="60" height="30" as="geometry" />
        </mxCell>
        <mxCell id="izRRXyb8rAuXV9V97CvB-114" value="Private" style="text;html=1;strokeColor=none;fillColor=none;align=center;verticalAlign=middle;whiteSpace=wrap;rounded=0;fontSize=16;" vertex="1" parent="1">
          <mxGeometry x="538" y="500" width="60" height="30" as="geometry" />
        </mxCell>
        <mxCell id="izRRXyb8rAuXV9V97CvB-115" value="Private" style="text;html=1;strokeColor=none;fillColor=none;align=center;verticalAlign=middle;whiteSpace=wrap;rounded=0;fontSize=16;" vertex="1" parent="1">
          <mxGeometry x="71" y="500" width="60" height="30" as="geometry" />
        </mxCell>
        <mxCell id="izRRXyb8rAuXV9V97CvB-116" value="Transit Gateway" style="text;html=1;strokeColor=none;fillColor=none;align=center;verticalAlign=middle;whiteSpace=wrap;rounded=0;fontSize=16;" vertex="1" parent="1">
          <mxGeometry x="743" y="108" width="60" height="30" as="geometry" />
        </mxCell>
        <mxCell id="izRRXyb8rAuXV9V97CvB-117" value="VPC Peering" style="text;html=1;strokeColor=none;fillColor=none;align=center;verticalAlign=middle;whiteSpace=wrap;rounded=0;fontSize=16;" vertex="1" parent="1">
          <mxGeometry x="747" y="305" width="60" height="30" as="geometry" />
        </mxCell>
        <mxCell id="izRRXyb8rAuXV9V97CvB-118" value="VPC Peering" style="text;html=1;strokeColor=none;fillColor=none;align=center;verticalAlign=middle;whiteSpace=wrap;rounded=0;fontSize=16;" vertex="1" parent="1">
          <mxGeometry x="1086" y="370" width="60" height="30" as="geometry" />
        </mxCell>
        <mxCell id="izRRXyb8rAuXV9V97CvB-119" value="NAT gateway" style="sketch=0;outlineConnect=0;fontColor=#232F3E;gradientColor=none;strokeColor=#232F3E;fillColor=#ffffff;dashed=0;verticalLabelPosition=bottom;verticalAlign=top;align=center;html=1;fontSize=12;fontStyle=0;aspect=fixed;shape=mxgraph.aws4.resourceIcon;resIcon=mxgraph.aws4.nat_gateway;rounded=1;" vertex="1" parent="1">
          <mxGeometry x="485" y="155" width="60" height="60" as="geometry" />
        </mxCell>
        <mxCell id="izRRXyb8rAuXV9V97CvB-120" value="VPN Gate way" style="text;html=1;strokeColor=none;fillColor=none;align=center;verticalAlign=middle;whiteSpace=wrap;rounded=0;fontSize=16;" vertex="1" parent="1">
          <mxGeometry x="44.5" y="613" width="141" height="30" as="geometry" />
        </mxCell>
      </root>
    </mxGraphModel>
  </diagram>
</mxfile>
